<svg version="1.1" id="Layer_1" xmlns="http://www.w3.org/2000/svg" xmlns:xlink="http://www.w3.org/1999/xlink" x="0px" y="0px"
	 width="100%" viewBox="0 0 325 188" enable-background="new 0 0 325 188" xml:space="preserve">
<path fill="#C2E9F3" opacity="1.000000" stroke="none" 
	d="
M227.000000,189.000000 
	C151.333344,189.000000 76.166687,189.000000 1.000020,189.000000 
	C1.000013,126.333351 1.000013,63.666698 1.000007,1.000037 
	C109.333305,1.000025 217.666611,1.000025 325.999939,1.000012 
	C325.999939,63.666630 325.999939,126.333260 325.999969,188.999939 
	C293.166656,189.000000 260.333344,189.000000 227.000000,189.000000 
M263.917725,96.164742 
	C263.917725,96.164742 263.667877,96.333374 263.959839,96.798294 
	C264.307129,96.880928 264.654449,96.963562 265.182159,97.240028 
	C265.182159,97.240028 265.444550,97.204254 266.052521,97.757881 
	C268.071930,97.540169 270.091370,97.322456 272.772919,96.792046 
	C273.200256,96.022415 273.627594,95.252785 274.219299,94.187096 
	C266.030853,95.912857 265.319214,95.519302 264.851105,88.862244 
	C268.278687,88.862244 271.676178,88.862244 275.530151,88.862244 
	C275.220032,84.454201 276.403412,80.153053 271.819855,77.931931 
	C268.828247,76.482231 265.596771,75.736076 262.238617,79.114067 
	C258.359192,84.357941 258.359833,90.621788 262.794647,95.237587 
	C262.794647,95.237587 262.607758,95.384552 262.817200,95.859703 
	C263.110870,96.030228 263.404510,96.200752 263.917725,96.164742 
M170.978088,145.977493 
	C170.978088,145.977493 170.894974,145.963959 171.366318,145.716858 
	C171.563995,145.428452 171.761673,145.140060 172.185165,144.326706 
	C172.778656,143.881546 173.372131,143.436386 174.459869,143.013977 
	C174.459869,143.013977 174.954056,143.018631 174.999313,142.994659 
	C174.999313,142.994659 174.997223,143.045807 175.419434,143.492279 
	C175.807434,143.618149 176.195450,143.744034 176.874603,143.478134 
	C177.431320,143.170761 177.988052,142.863403 178.937881,141.960968 
	C178.222244,140.436752 177.506607,138.912521 176.362396,136.832809 
	C174.575745,133.685593 175.846970,131.670029 180.745117,131.167145 
	C182.166901,131.091080 183.588669,131.015030 185.010452,130.938965 
	C184.715454,129.743195 184.782547,128.228485 184.060562,127.408783 
	C181.429428,124.421532 178.676468,121.500595 175.657516,118.919502 
	C174.683472,118.086739 172.748627,118.377747 171.253311,118.154678 
	C171.616501,119.679749 171.979675,121.204819 172.583603,123.262253 
	C170.953064,125.115417 170.349731,128.516785 166.317749,126.793129 
	C165.804443,126.324043 165.291122,125.854958 164.396973,124.882370 
	C162.091049,123.122658 160.281464,122.749245 159.360596,126.302994 
	C158.851532,128.267502 158.376251,130.546509 157.086472,131.948456 
	C152.252029,137.203384 147.017059,142.087799 142.100494,147.270706 
	C140.942459,148.491470 139.611633,150.432892 139.780609,151.876526 
	C140.558884,158.525345 138.562347,163.828537 133.424347,168.070114 
	C132.463913,168.862991 131.799423,170.014374 130.499481,171.614334 
	C131.839630,171.466263 132.058899,171.510284 132.160934,171.420731 
	C134.268005,169.571350 136.361740,167.706772 139.337006,165.913422 
	C140.641144,165.491241 141.945282,165.069046 143.376160,164.681686 
	C143.376160,164.681686 143.352142,164.810898 144.282578,164.902985 
	C146.234711,164.607239 148.233383,164.481766 150.125031,163.964752 
	C151.797318,163.507675 153.350372,162.614426 154.992920,161.985092 
	C154.992920,161.985092 154.914169,161.969360 155.373260,161.736938 
	C155.571915,161.462677 155.770569,161.188416 155.989105,160.989334 
	C155.989105,160.989334 155.913971,160.969315 156.373215,160.736282 
	C156.571564,160.461456 156.769928,160.186615 156.987885,159.988068 
	C156.987885,159.988068 156.911606,159.968399 157.371719,159.735733 
	C157.570435,159.460678 157.769165,159.185623 157.987259,158.987442 
	C157.987259,158.987442 157.910431,158.967972 158.370987,158.735260 
	C158.569809,158.459961 158.768631,158.184662 158.986633,157.986771 
	C158.986633,157.986771 158.909225,157.967545 159.370209,157.734756 
	C159.569153,157.459244 159.768112,157.183731 159.985962,156.986130 
	C159.985962,156.986130 159.908081,156.967133 160.369461,156.734390 
	C160.568542,156.458664 160.767609,156.182938 160.985413,155.985565 
	C160.985413,155.985565 160.907074,155.966766 161.368790,155.733948 
	C161.567963,155.458038 161.767151,155.182144 161.984833,154.985001 
	C161.984833,154.985001 161.906082,154.966415 162.368134,154.733444 
	C162.567368,154.457291 162.766617,154.181137 162.984085,153.984283 
	C162.984085,153.984283 162.904800,153.965988 163.367371,153.732773 
	C163.566635,153.456223 163.765915,153.179657 163.983017,152.983124 
	C163.983017,152.983124 163.902985,152.965271 164.366272,152.731903 
	C164.565582,152.454819 164.764893,152.177719 164.981522,151.981598 
	C164.981522,151.981598 164.900528,151.964310 165.364761,151.731003 
	C165.564224,151.453369 165.763702,151.175735 165.979797,150.980026 
	C165.979797,150.980026 165.897903,150.963272 166.363174,150.730301 
	C166.562897,150.452271 166.762619,150.174240 166.978561,149.978806 
	C166.978561,149.978806 166.895996,149.962402 167.362015,149.729813 
	C167.561981,149.451584 167.761948,149.173355 167.977875,148.978088 
	C167.977875,148.978088 167.894943,148.961929 168.361374,148.729660 
	C168.561508,148.451355 168.761642,148.173050 168.977570,147.977829 
	C168.977570,147.977829 168.894547,147.961746 169.361115,147.729614 
	C169.561356,147.451324 169.761581,147.173050 169.977600,146.977844 
	C169.977600,146.977844 169.894577,146.961792 170.361145,146.729614 
	C170.561386,146.451370 170.761642,146.173126 170.978088,145.977493 
M161.446869,68.631699 
	C161.296768,73.389847 160.969513,78.151123 161.053513,82.905136 
	C161.118835,86.601517 161.696747,90.288841 162.413666,94.122345 
	C162.413666,94.122345 162.788727,94.241043 162.894241,94.967979 
	C164.913849,98.632759 167.253586,99.023346 169.460129,97.070404 
	C168.255478,94.410316 166.986404,92.863495 166.934799,91.277061 
	C166.709061,84.337738 166.807571,77.386765 166.848724,70.440369 
	C166.866898,67.372421 165.964539,65.912598 162.386978,67.862350 
	C162.386978,67.862350 161.985504,67.998192 161.446869,68.631699 
M112.994881,97.000450 
	C112.994881,97.000450 113.158890,96.949028 113.381996,97.752380 
	C115.972107,98.476089 117.446632,97.964973 117.328537,94.802620 
	C117.095078,88.550529 117.080704,82.290260 116.965729,75.306404 
	C116.490791,73.030357 116.015862,70.754311 115.529503,68.423508 
	C111.582947,69.034851 110.975380,70.701500 113.035149,76.535576 
	C113.035149,76.535576 113.159714,77.019188 112.991554,77.524467 
	C112.936569,77.693253 112.881577,77.862030 112.358665,78.703255 
	C112.513519,84.805229 112.668365,90.907211 112.994881,97.000450 
M72.300270,79.283989 
	C70.555176,84.329025 68.896576,89.370560 73.200775,94.820213 
	C77.683479,99.300545 79.852989,99.393097 82.611755,94.962616 
	C77.892021,95.553062 74.523346,94.495125 75.954773,89.013000 
	C79.215279,89.013000 82.475777,89.013000 86.625946,89.013000 
	C85.881104,85.440399 85.320892,82.753387 84.665222,79.517540 
	C84.187660,78.978920 83.710098,78.440300 82.817108,77.260696 
	C79.065033,75.138474 75.691063,75.270447 72.980820,79.005074 
	C72.980820,79.005074 72.925934,78.910309 72.300270,79.283989 
M151.544495,77.392937 
	C148.530273,77.352348 145.506958,77.185905 142.511246,77.401970 
	C142.042435,77.435783 141.699051,79.208778 141.228027,80.345634 
	C144.989624,80.345634 147.898499,80.345634 150.888748,81.047142 
	C150.906998,81.986465 150.925247,82.925797 150.142899,83.956703 
	C148.543457,84.273277 146.866791,84.382179 145.358292,84.943283 
	C139.600662,87.084892 138.305527,93.511780 143.409378,96.713585 
	C145.338379,97.923698 148.968475,96.422195 151.822937,96.119331 
	C151.822937,96.119331 151.817642,96.159828 151.963120,96.923012 
	C153.061752,97.066505 154.158264,97.243164 155.261551,97.313469 
	C155.407028,97.322731 155.751785,96.773361 155.726913,96.508797 
	C155.181534,90.710472 154.596924,84.915848 153.684418,78.884613 
	C153.684418,78.884613 153.275177,78.858925 153.035980,78.349960 
	C152.691376,78.239731 152.346771,78.129501 151.544495,77.392937 
M208.177078,96.764923 
	C210.704651,99.127205 212.908752,97.956017 215.791199,96.015778 
	C217.609650,95.473686 220.433899,101.615532 221.166962,95.622910 
	C221.845795,90.073570 221.236908,84.352005 220.972931,78.716682 
	C220.929474,77.788612 219.743179,76.914078 219.085037,76.014793 
	C218.370773,77.027733 217.090240,78.014069 217.041199,79.058258 
	C216.838974,83.364464 217.010315,87.688210 216.824142,92.279419 
	C216.824142,92.279419 216.828476,92.630829 216.296448,92.881302 
	C215.869919,93.284576 215.443390,93.687859 214.231445,94.019279 
	C213.184113,93.963676 212.136795,93.908081 210.985062,92.941185 
	C210.872192,87.943687 210.759308,82.946198 210.631714,77.185211 
	C209.264511,76.700768 207.897293,76.216324 206.010925,75.547920 
	C206.010925,81.899696 205.913712,87.460938 206.096390,93.012962 
	C206.131180,94.070160 207.272537,95.090935 207.944290,96.012451 
	C207.944290,96.012451 207.864594,96.106232 208.177078,96.764923 
M24.145830,142.814804 
	C21.776943,142.763260 19.408058,142.711716 16.853373,141.884445 
	C16.564091,140.096100 16.024506,138.308014 16.022528,136.519348 
	C15.984004,101.687500 16.008192,66.855583 16.053383,31.661863 
	C16.053383,31.661863 16.063236,31.298605 16.984884,31.176853 
	C110.302139,31.168568 203.619385,31.159803 296.936646,31.158323 
	C297.933533,31.158308 298.930420,31.253733 299.983704,32.201084 
	C299.966888,69.032822 299.950043,105.864563 299.017365,142.822021 
	C293.681519,142.779678 288.345642,142.737350 282.675964,142.350433 
	C282.114014,142.465286 281.552094,142.580154 280.070007,142.821365 
	C275.716614,142.779251 271.363190,142.737122 266.675964,142.350418 
	C266.114014,142.465286 265.552094,142.580139 264.070007,142.821381 
	C259.716614,142.779251 255.363205,142.737122 250.675949,142.350449 
	C250.113998,142.465302 249.552063,142.580154 248.069992,142.821381 
	C243.716599,142.779251 239.363205,142.737137 234.675949,142.350449 
	C234.113998,142.465302 233.552063,142.580154 232.069992,142.821365 
	C227.716599,142.779251 223.363205,142.737122 218.675949,142.350449 
	C218.113998,142.465302 217.552063,142.580154 216.062744,142.821579 
	C209.714203,142.778503 203.365677,142.735413 196.802673,142.435135 
	C196.531296,142.537888 196.259933,142.640640 195.542694,143.049469 
	C195.469421,143.374588 195.396149,143.699707 195.153961,144.669067 
	C195.210480,145.105743 195.266998,145.542419 195.447113,146.817596 
	C197.059647,147.038452 198.671829,147.449036 200.284790,147.452133 
	C231.232788,147.511612 262.180878,147.538651 293.128937,147.527069 
	C297.441193,147.525452 301.753357,147.285080 306.577667,147.217270 
	C306.735138,147.148209 306.892639,147.079147 307.571045,146.362610 
	C307.713409,145.386047 307.979767,144.409576 307.980316,143.432922 
	C308.001831,106.006958 308.010498,68.580956 307.954498,31.155064 
	C307.952423,29.758875 307.289764,28.363672 306.187012,26.667711 
	C305.194427,26.596737 304.201843,26.463701 303.209259,26.463604 
	C206.635071,26.454096 110.060883,26.452415 13.486698,26.475830 
	C12.013652,26.476187 10.540683,26.794743 8.500070,27.583370 
	C8.333744,28.719685 8.022824,29.855900 8.022045,30.992329 
	C7.996490,68.250549 7.990325,105.508804 8.040410,142.766968 
	C8.042313,144.182495 8.630718,145.597229 9.414143,147.194794 
	C9.581034,147.180069 9.747925,147.165359 10.680739,147.455093 
	C46.171814,147.484741 81.662918,147.529282 117.153877,147.478439 
	C118.326462,147.476761 119.497650,146.506546 120.834114,145.340485 
	C120.779793,144.901657 120.725471,144.462830 120.755028,143.478409 
	C120.498421,143.220230 120.241821,142.962036 119.797401,142.459290 
	C119.486412,142.293625 119.225372,142.359848 118.101761,142.813522 
	C114.393181,142.762756 110.684593,142.711990 106.646111,142.341415 
	C106.105438,142.448013 105.564758,142.554626 104.102806,142.815308 
	C99.727211,142.763947 95.351608,142.712585 90.646111,142.341415 
	C90.105438,142.448013 89.564758,142.554626 88.102806,142.815292 
	C83.727211,142.763931 79.351608,142.712570 74.646111,142.341400 
	C74.105431,142.447998 73.564758,142.554611 72.102806,142.815308 
	C67.727211,142.763947 63.351608,142.712585 58.646114,142.341415 
	C58.105434,142.448013 57.564754,142.554626 56.102787,142.815292 
	C51.727196,142.763931 47.351601,142.712570 42.646114,142.341400 
	C42.105434,142.448013 41.564754,142.554611 40.102787,142.815308 
	C35.727196,142.763947 31.351604,142.712585 26.646111,142.341415 
	C26.105433,142.448013 25.564754,142.554626 24.145830,142.814804 
M229.239960,98.530243 
	C232.680069,100.967300 233.697388,98.146935 233.770370,95.880371 
	C234.035782,87.636543 234.001633,79.374199 233.705536,71.132301 
	C233.668320,70.096245 231.323471,68.290688 230.183289,68.390434 
	C229.080521,68.486916 227.558014,70.470856 227.300491,71.830414 
	C226.987518,73.482758 227.805649,75.349342 228.023666,78.041695 
	C228.018158,80.172562 227.894485,82.311073 228.031631,84.432716 
	C228.321228,88.913254 228.747238,93.384979 229.239960,98.530243 
M43.674320,97.362915 
	C43.778351,93.057434 43.601738,88.717255 44.127724,84.463951 
	C44.331547,82.815773 46.125134,81.364182 47.194492,79.823029 
	C48.081589,81.284836 49.548939,82.676582 49.735657,84.222954 
	C50.131077,87.497772 49.647469,90.873566 49.964634,94.165535 
	C50.089497,95.461540 51.390705,96.644211 52.156227,97.878487 
	C52.790085,96.691139 53.887386,95.535309 53.970684,94.310516 
	C54.218102,90.672440 53.785522,86.973305 54.220409,83.370667 
	C54.376152,82.080467 56.250038,80.997665 57.339741,79.820198 
	C58.177639,80.988724 59.634430,82.105064 59.738174,83.335503 
	C60.058071,87.129608 59.725594,90.975380 59.952637,94.782822 
	C60.016068,95.846542 61.138439,96.847115 61.775047,97.876656 
	C62.535046,96.817085 63.857838,95.804245 63.950409,94.689255 
	C64.238091,91.224464 64.070076,87.720871 64.058693,84.232399 
	C64.031013,75.753670 61.083061,74.023369 53.676300,78.258286 
	C50.991402,75.693359 48.098839,75.071266 44.879395,77.528564 
	C44.556183,77.775276 43.581917,77.169014 42.635677,76.244972 
	C41.453960,77.113907 39.311905,77.919044 39.249233,78.862328 
	C38.891518,84.246094 38.833710,89.675224 39.176941,95.056862 
	C39.239300,96.034653 41.630405,96.863922 43.674320,97.362915 
M195.892181,72.956024 
	C196.649368,72.354233 197.406555,71.752441 198.163742,71.150658 
	C197.358963,70.458374 196.658447,69.394844 195.732315,69.134766 
	C190.210526,67.584129 184.047577,70.615791 182.917007,76.290146 
	C182.005280,80.866112 181.912628,85.903130 182.807465,90.470978 
	C184.130753,97.225937 190.894547,100.046326 197.143646,97.028320 
	C198.342255,96.449440 199.631973,94.781372 199.758667,93.504585 
	C200.113647,89.926636 199.882324,86.290512 199.882324,82.481972 
	C196.841171,82.855423 194.380829,83.157555 191.920486,83.459686 
	C196.545288,86.148766 196.158966,89.768845 194.919739,94.916740 
	C192.389832,93.849617 189.156677,93.530457 188.171677,91.874245 
	C185.233505,86.933945 185.627045,81.336136 187.520004,76.014053 
	C188.795334,72.428459 192.031799,72.638817 195.892181,72.956024 
M101.861153,69.841858 
	C101.861153,72.148384 101.861153,74.454910 101.861153,76.833290 
	C94.560875,75.190903 91.340469,77.625862 90.892784,84.844666 
	C90.810486,86.171730 90.518387,87.633553 90.938110,88.814621 
	C91.953491,91.671852 92.621895,95.705887 94.739601,96.857353 
	C97.530693,98.374985 101.573914,97.645264 105.081680,97.700821 
	C105.420502,97.706184 106.079178,96.439392 106.083984,95.759567 
	C106.150703,86.306564 106.129143,76.852928 106.129143,65.859932 
	C103.934204,67.481987 102.928864,68.224922 101.861153,69.841858 
M249.847336,73.343613 
	C249.791306,74.484589 249.735291,75.625565 249.677963,76.793289 
	C243.470322,75.391701 240.290527,76.701622 239.420029,81.915466 
	C238.809814,85.570305 238.962357,89.593933 239.837189,93.194611 
	C240.948959,97.770546 243.674789,98.630798 248.118576,97.005074 
	C248.788956,96.759827 249.833527,96.771355 250.400497,97.136681 
	C253.530121,99.153259 254.121826,97.582870 254.096008,94.753387 
	C254.032196,87.759331 254.049561,80.764511 253.979538,73.770546 
	C253.957397,71.557457 253.762192,69.346100 253.640976,67.034019 
	C249.010284,67.216423 250.036621,70.205368 249.847336,73.343613 
M123.744644,85.053734 
	C124.192177,88.140800 123.746750,91.857262 125.348984,94.130447 
	C126.826508,96.226700 130.415405,97.126060 133.253525,97.826416 
	C134.364395,98.100548 135.963379,96.396629 137.166122,95.695068 
	C133.702896,94.033638 129.800140,93.410133 128.875153,91.409706 
	C127.647240,88.754204 127.748329,84.470657 129.160004,81.933640 
	C130.259293,79.957985 134.232941,79.581696 137.271545,78.356575 
	C130.646774,73.695587 125.382690,76.279320 123.744644,85.053734 
z"/>
<path fill="#162195" opacity="1.000000" stroke="none" 
	d="
M9.067677,26.964798 
	C10.540683,26.794743 12.013652,26.476187 13.486698,26.475830 
	C110.060883,26.452415 206.635071,26.454096 303.209259,26.463604 
	C304.201843,26.463701 305.194427,26.596737 306.445068,26.760406 
	C306.703125,26.853104 306.467041,26.958982 306.334717,27.107681 
	C306.101715,27.502544 306.015076,27.753542 305.480011,28.006763 
	C206.694687,28.007833 108.371796,28.011511 9.992846,27.821482 
	C9.884868,27.350296 9.745466,27.127609 9.405149,26.898167 
	C9.291715,26.836617 9.067677,26.964798 9.067677,26.964798 
z"/>
<path fill="#162292" opacity="1.000000" stroke="none" 
	d="
M299.927307,31.304602 
	C298.930420,31.253733 297.933533,31.158308 296.936646,31.158323 
	C203.619385,31.159803 110.302139,31.168568 16.196245,31.133316 
	C14.950617,31.094868 14.493629,31.099960 14.328139,30.808609 
	C16.254475,30.342043 17.889273,30.023468 19.524153,30.023043 
	C111.579826,29.999121 203.635513,29.996870 295.691162,30.038061 
	C297.449951,30.038847 299.208435,30.583662 300.702942,30.972042 
	C300.268341,31.147823 300.097809,31.226212 299.927307,31.304602 
z"/>
<path fill="#222E9D" opacity="1.000000" stroke="none" 
	d="
M195.493652,72.911316 
	C192.031799,72.638817 188.795334,72.428459 187.520004,76.014053 
	C185.627045,81.336136 185.233505,86.933945 188.171677,91.874245 
	C189.156677,93.530457 192.389832,93.849617 194.919739,94.916740 
	C196.158966,89.768845 196.545288,86.148766 191.920486,83.459686 
	C194.380829,83.157555 196.841171,82.855423 199.882324,82.481972 
	C199.882324,86.290512 200.113647,89.926636 199.758667,93.504585 
	C199.631973,94.781372 198.342255,96.449440 197.143646,97.028320 
	C190.894547,100.046326 184.130753,97.225937 182.807465,90.470978 
	C181.912628,85.903130 182.005280,80.866112 182.917007,76.290146 
	C184.047577,70.615791 190.210526,67.584129 195.732315,69.134766 
	C196.658447,69.394844 197.358963,70.458374 198.163742,71.150650 
	C197.406555,71.752441 196.649368,72.354233 195.493652,72.911316 
z"/>
<path fill="#1B259B" opacity="1.000000" stroke="none" 
	d="
M42.909798,76.958603 
	C43.581917,77.169014 44.556183,77.775276 44.879395,77.528564 
	C48.098839,75.071266 50.991402,75.693359 53.676300,78.258286 
	C61.083061,74.023369 64.031013,75.753670 64.058693,84.232399 
	C64.070076,87.720871 64.238091,91.224464 63.950409,94.689255 
	C63.857838,95.804245 62.535046,96.817085 61.775047,97.876656 
	C61.138439,96.847115 60.016068,95.846542 59.952637,94.782822 
	C59.725594,90.975380 60.058071,87.129608 59.738174,83.335503 
	C59.634430,82.105064 58.177639,80.988724 57.339741,79.820198 
	C56.250038,80.997665 54.376152,82.080467 54.220409,83.370667 
	C53.785522,86.973305 54.218102,90.672440 53.970684,94.310516 
	C53.887386,95.535309 52.790085,96.691139 52.156231,97.878487 
	C51.390705,96.644211 50.089497,95.461540 49.964634,94.165535 
	C49.647469,90.873566 50.131077,87.497772 49.735657,84.222954 
	C49.548939,82.676582 48.081589,81.284836 47.194496,79.823029 
	C46.125134,81.364182 44.331547,82.815773 44.127724,84.463951 
	C43.601738,88.717255 43.778351,93.057434 43.044624,97.296799 
	C42.146103,90.698189 41.864845,84.166069 41.664265,77.631462 
	C41.657776,77.420128 42.476013,77.183464 42.909798,76.958603 
z"/>
<path fill="#1E299A" opacity="1.000000" stroke="none" 
	d="
M101.892334,69.404861 
	C102.928864,68.224922 103.934204,67.481987 106.129143,65.859932 
	C106.129143,76.852928 106.150703,86.306564 106.083984,95.759567 
	C106.079178,96.439392 105.420502,97.706184 105.081680,97.700821 
	C101.573914,97.645264 97.530693,98.374985 94.739601,96.857353 
	C92.621895,95.705887 91.953491,91.671852 90.938110,88.814621 
	C90.518387,87.633553 90.810486,86.171730 90.892784,84.844666 
	C91.340469,77.625862 94.560875,75.190903 101.861153,76.833290 
	C101.861153,74.454910 101.861153,72.148384 101.892334,69.404861 
M95.577820,91.690239 
	C96.806091,92.495018 98.300491,94.163879 99.195969,93.888084 
	C100.341682,93.535233 101.533081,91.703812 101.760040,90.351059 
	C102.166779,87.926765 102.139290,85.340042 101.744232,82.910484 
	C101.560364,81.779739 100.186287,80.173424 99.177925,80.033287 
	C98.161446,79.892029 96.126915,81.138924 95.941147,82.060410 
	C95.362404,84.931168 95.448044,87.935867 95.577820,91.690239 
z"/>
<path fill="#1E299A" opacity="1.000000" stroke="none" 
	d="
M249.847366,72.907227 
	C250.036621,70.205368 249.010284,67.216423 253.640976,67.034019 
	C253.762192,69.346100 253.957397,71.557457 253.979538,73.770546 
	C254.049561,80.764511 254.032196,87.759331 254.096008,94.753387 
	C254.121826,97.582870 253.530121,99.153259 250.400497,97.136681 
	C249.833527,96.771355 248.788956,96.759827 248.118576,97.005074 
	C243.674789,98.630798 240.948959,97.770546 239.837189,93.194611 
	C238.962357,89.593933 238.809814,85.570305 239.420029,81.915466 
	C240.290527,76.701622 243.470322,75.391701 249.677963,76.793289 
	C249.735291,75.625565 249.791306,74.484589 249.847366,72.907227 
M248.153992,93.813858 
	C248.629776,89.705482 249.228867,85.601883 249.388779,81.481247 
	C249.404587,81.073486 246.735886,80.561546 245.313141,80.097954 
	C244.570847,83.184006 243.434631,86.242241 243.214111,89.365143 
	C243.045532,91.752571 243.614044,94.601509 248.153992,93.813858 
z"/>
<path fill="#A9C6F1" opacity="1.000000" stroke="none" 
	d="
M299.955505,31.752842 
	C300.097809,31.226212 300.268341,31.147823 300.965698,31.088539 
	C301.743835,31.391253 301.995087,31.674860 302.195679,32.428398 
	C302.136139,58.626743 302.150909,84.355202 302.107208,110.083565 
	C302.088623,121.033073 301.947632,131.982376 301.880310,142.953674 
	C301.898376,142.975555 301.917511,142.922394 301.581726,142.930511 
	C300.808350,142.857834 300.370789,142.777069 299.933228,142.696304 
	C299.950043,105.864563 299.966888,69.032822 299.955505,31.752842 
z"/>
<path fill="#B7D5F8" opacity="1.000000" stroke="none" 
	d="
M16.019527,32.023674 
	C16.008192,66.855583 15.984004,101.687500 16.022528,136.519348 
	C16.024506,138.308014 16.564091,140.096100 16.583115,142.367310 
	C15.564013,142.855408 14.815166,142.860626 14.024137,142.648224 
	C13.981954,142.430618 13.781255,142.035751 13.838037,141.566925 
	C13.858717,104.704910 13.822615,68.311737 13.863855,31.957146 
	C13.941198,31.995731 14.107376,32.043362 14.425622,32.028507 
	C15.169088,32.016991 15.594309,32.020332 16.019527,32.023674 
z"/>
<path fill="#162195" opacity="1.000000" stroke="none" 
	d="
M120.669495,145.987808 
	C119.497650,146.506546 118.326462,147.476761 117.153877,147.478439 
	C81.662918,147.529282 46.171814,147.484741 10.339103,147.012726 
	C10.017134,146.376160 10.036800,146.181976 10.449516,145.991119 
	C11.895588,145.993256 12.948612,145.992050 14.470184,145.993378 
	C50.182320,145.993225 85.425911,145.990509 120.669495,145.987808 
z"/>
<path fill="#191CA9" opacity="1.000000" stroke="none" 
	d="
M195.323517,145.979095 
	C195.266998,145.542419 195.210480,145.105743 195.685852,144.338943 
	C231.476898,144.004684 266.736053,144.000549 302.223145,144.179153 
	C302.633209,144.904495 302.815399,145.447098 302.529053,145.992462 
	C266.481537,145.989853 230.902527,145.984482 195.323517,145.979095 
z"/>
<path fill="#191CA9" opacity="1.000000" stroke="none" 
	d="
M120.751801,145.664154 
	C85.425911,145.990509 50.182320,145.993225 14.469677,145.660645 
	C14.001100,144.881332 14.001579,144.437302 14.470585,143.994080 
	C50.183128,144.004578 85.427139,144.014282 120.671158,144.023987 
	C120.725471,144.462830 120.779793,144.901657 120.751801,145.664154 
z"/>
<path fill="#162195" opacity="1.000000" stroke="none" 
	d="
M195.385315,146.398346 
	C230.902527,145.984482 266.481537,145.989853 302.897156,145.995728 
	C304.468018,145.995255 305.202332,145.994263 305.962402,146.284485 
	C306.013977,146.768875 306.039764,146.962051 306.065582,147.155243 
	C301.753357,147.285080 297.441193,147.525452 293.128937,147.527069 
	C262.180878,147.538651 231.232788,147.511612 200.284790,147.452133 
	C198.671829,147.449036 197.059647,147.038452 195.385315,146.398346 
z"/>
<path fill="#22348B" opacity="1.000000" stroke="none" 
	d="
M138.458130,165.845215 
	C136.361740,167.706772 134.268005,169.571350 132.160934,171.420731 
	C132.058899,171.510284 131.839630,171.466263 130.499481,171.614334 
	C131.799423,170.014374 132.463913,168.862991 133.424347,168.070114 
	C138.562347,163.828537 140.558884,158.525345 139.780609,151.876526 
	C139.611633,150.432892 140.942459,148.491470 142.100494,147.270706 
	C147.017059,142.087799 152.252029,137.203384 157.086472,131.948456 
	C158.376251,130.546509 158.851532,128.267502 159.360596,126.302994 
	C160.281464,122.749245 162.091049,123.122658 164.331970,125.332153 
	C164.106628,125.925835 163.946259,126.069740 163.511200,126.087021 
	C162.681946,126.312088 161.607803,126.805717 161.658691,126.991982 
	C161.947815,128.050201 162.505737,129.035004 162.628845,130.089233 
	C156.193802,136.102646 150.102142,142.071609 143.724731,148.183289 
	C140.962708,151.066681 141.786331,154.583633 145.824081,158.601318 
	C145.043106,160.915344 144.197632,162.863129 143.352142,164.810898 
	C143.352142,164.810898 143.376160,164.681686 143.319672,164.317841 
	C141.661499,164.584412 140.059814,165.214813 138.458130,165.845215 
z"/>
<path fill="#19249F" opacity="1.000000" stroke="none" 
	d="
M265.444550,97.204254 
	C265.444550,97.204254 265.182159,97.240028 264.927917,96.930603 
	C264.338440,96.525253 264.003143,96.429314 263.667877,96.333374 
	C263.667877,96.333374 263.917725,96.164742 263.751038,95.991142 
	C263.258789,95.673210 262.933289,95.528885 262.607758,95.384552 
	C262.607758,95.384552 262.794647,95.237587 262.695496,94.922432 
	C260.993896,89.318588 261.106567,84.066017 262.928192,78.849426 
	C265.596771,75.736076 268.828247,76.482231 271.819855,77.931931 
	C276.403412,80.153053 275.220032,84.454201 275.530151,88.862244 
	C271.676178,88.862244 268.278687,88.862244 264.851105,88.862244 
	C265.319214,95.519302 266.030853,95.912857 274.219299,94.187096 
	C273.627594,95.252785 273.200256,96.022415 271.973145,96.914139 
	C269.263763,97.092239 267.354156,97.148247 265.444550,97.204254 
M271.430695,82.919609 
	C269.760925,81.659355 268.091156,80.399109 265.629181,78.540924 
	C264.964233,82.008781 264.639008,83.704811 264.313812,85.400841 
	C264.606476,85.876816 264.899139,86.352783 265.191803,86.828758 
	C267.428802,85.749962 269.665833,84.671158 271.430695,82.919609 
z"/>
<path fill="#202D98" opacity="1.000000" stroke="none" 
	d="
M123.785461,84.655273 
	C125.382690,76.279320 130.646774,73.695587 137.271545,78.356575 
	C134.232941,79.581696 130.259293,79.957985 129.160004,81.933640 
	C127.748329,84.470657 127.647240,88.754204 128.875153,91.409706 
	C129.800140,93.410133 133.702896,94.033638 137.166122,95.695068 
	C135.963379,96.396629 134.364395,98.100548 133.253525,97.826416 
	C130.415405,97.126060 126.826508,96.226700 125.348984,94.130447 
	C123.746750,91.857262 124.192177,88.140800 123.785461,84.655273 
z"/>
<path fill="#14219D" opacity="1.000000" stroke="none" 
	d="
M162.801102,67.769501 
	C165.964539,65.912598 166.866898,67.372421 166.848724,70.440369 
	C166.807571,77.386765 166.709061,84.337738 166.934799,91.277061 
	C166.986404,92.863495 168.255478,94.410316 169.460129,97.070404 
	C167.253586,99.023346 164.913849,98.632759 162.941513,94.125557 
	C162.926224,84.778587 162.863663,76.274048 162.801102,67.769501 
z"/>
<path fill="#C4E4FF" opacity="1.000000" stroke="none" 
	d="
M8.945820,147.012329 
	C8.630718,145.597229 8.042313,144.182495 8.040410,142.766968 
	C7.990325,105.508804 7.996490,68.250549 8.022045,30.992329 
	C8.022824,29.855900 8.333744,28.719685 8.783874,27.274084 
	C9.067677,26.964798 9.291715,26.836617 9.218247,27.146807 
	C9.175758,27.662060 9.206738,27.867123 9.186719,28.508511 
	C9.170622,31.290226 9.205523,33.635616 9.143206,36.442413 
	C9.030011,54.007751 8.976337,71.111748 9.008716,88.215584 
	C9.040766,105.146774 9.159639,122.077812 9.188192,139.421631 
	C9.171060,141.217361 9.206162,142.600403 9.142278,144.352478 
	C9.010800,145.485123 8.978311,146.248734 8.945820,147.012329 
z"/>
<path fill="#C4E4FF" opacity="1.000000" stroke="none" 
	d="
M306.819031,26.910557 
	C307.289764,28.363672 307.952423,29.758875 307.954498,31.155064 
	C308.010498,68.580956 308.001831,106.006958 307.980316,143.432922 
	C307.979767,144.409576 307.713409,145.386047 307.290344,146.217529 
	C307.006561,108.327843 307.011414,70.583214 306.977631,32.838623 
	C306.975891,30.878592 306.644806,28.918858 306.467041,26.958984 
	C306.467041,26.958982 306.703125,26.853104 306.819031,26.910557 
z"/>
<path fill="#3949A9" opacity="1.000000" stroke="none" 
	d="
M306.334686,27.107683 
	C306.644806,28.918858 306.975891,30.878592 306.977631,32.838623 
	C307.011414,70.583214 307.006561,108.327843 307.029907,146.541275 
	C306.892639,147.079147 306.735138,147.148209 306.321625,147.186249 
	C306.039764,146.962051 306.013977,146.768875 305.984558,145.816971 
	C305.968048,106.041954 305.955261,67.025665 305.942444,28.009373 
	C306.015076,27.753542 306.101715,27.502544 306.334686,27.107683 
z"/>
<path fill="#9BC5F7" opacity="1.000000" stroke="none" 
	d="
M228.134460,77.123245 
	C227.805649,75.349342 226.987518,73.482758 227.300491,71.830414 
	C227.558014,70.470856 229.080521,68.486916 230.183289,68.390434 
	C231.323471,68.290688 233.668320,70.096245 233.705536,71.132301 
	C234.001633,79.374199 234.035782,87.636543 233.770370,95.880371 
	C233.697388,98.146935 232.680069,100.967300 229.577698,98.197899 
	C230.651062,96.923882 231.991104,96.002426 232.023392,95.037216 
	C232.221024,89.128662 232.122284,83.210197 232.122284,77.123245 
	C230.434723,77.123245 229.284592,77.123245 228.134460,77.123245 
z"/>
<path fill="#162292" opacity="1.000000" stroke="none" 
	d="
M301.995239,143.996429 
	C266.736053,144.000549 231.476898,144.004684 195.770294,144.016815 
	C195.396149,143.699707 195.469421,143.374588 196.026199,142.952148 
	C196.678864,142.800659 196.848007,142.746490 197.017136,142.692337 
	C203.365677,142.735413 209.714203,142.778503 216.858734,142.853149 
	C218.106415,142.821487 218.558105,142.758240 219.009811,142.694992 
	C223.363205,142.737122 227.716599,142.779251 232.862350,142.853058 
	C234.106415,142.821487 234.558105,142.758240 235.009811,142.695007 
	C239.363205,142.737137 243.716599,142.779251 248.862350,142.853058 
	C250.106415,142.821487 250.558105,142.758240 251.009811,142.695007 
	C255.363205,142.737122 259.716614,142.779251 264.862366,142.853058 
	C266.106445,142.821487 266.558105,142.758240 267.009796,142.695007 
	C271.363190,142.737122 275.716614,142.779251 280.862366,142.853043 
	C282.106445,142.821487 282.558105,142.758240 283.009796,142.695007 
	C288.345642,142.737350 293.681519,142.779678 299.475281,142.759155 
	C300.370789,142.777069 300.808350,142.857834 301.605286,143.198700 
	C301.974884,143.638016 301.985077,143.817230 301.995239,143.996429 
z"/>
<path fill="#162292" opacity="1.000000" stroke="none" 
	d="
M120.713089,143.751190 
	C85.427139,144.014282 50.183128,144.004578 14.483841,143.712097 
	C14.041152,143.241516 14.053736,143.053680 14.066320,142.865845 
	C14.815166,142.860626 15.564013,142.855408 16.676014,142.755157 
	C19.408058,142.711716 21.776943,142.763260 24.906221,142.828278 
	C26.103081,142.781586 26.539547,142.721405 26.976013,142.661224 
	C31.351604,142.712585 35.727196,142.763947 40.884697,142.828537 
	C42.103077,142.781586 42.539543,142.721405 42.976009,142.661224 
	C47.351601,142.712570 51.727196,142.763931 56.884697,142.828522 
	C58.103077,142.781586 58.539543,142.721405 58.976009,142.661224 
	C63.351608,142.712585 67.727211,142.763947 72.884712,142.828522 
	C74.103081,142.781570 74.539551,142.721390 74.976013,142.661224 
	C79.351608,142.712570 83.727211,142.763931 88.884712,142.828522 
	C90.103081,142.781570 90.539551,142.721405 90.976013,142.661224 
	C95.351608,142.712585 99.727211,142.763947 104.884712,142.828522 
	C106.103081,142.781570 106.539551,142.721405 106.976013,142.661224 
	C110.684593,142.711990 114.393181,142.762756 118.797684,142.813614 
	C119.657478,142.777100 119.821342,142.740479 119.985214,142.703857 
	C120.241821,142.962036 120.498421,143.220230 120.713089,143.751190 
z"/>
<path fill="#1F26A5" opacity="1.000000" stroke="none" 
	d="
M75.050079,88.882393 
	C74.523346,94.495125 77.892021,95.553062 82.611755,94.962616 
	C79.852989,99.393097 77.683479,99.300545 73.024895,94.080078 
	C72.874649,88.530060 72.900291,83.720184 72.925934,78.910309 
	C72.925934,78.910309 72.980820,79.005074 73.312660,78.998619 
	C74.478294,79.414688 75.312080,79.837204 75.965370,80.603683 
	C75.525154,82.243431 75.265442,83.539215 74.907738,85.323914 
	C77.759666,85.184067 79.857330,85.081207 82.270782,84.863846 
	C83.345253,85.175133 84.103951,85.600914 84.862648,86.026695 
	C84.094521,86.670547 83.408134,87.702118 82.542740,87.884529 
	C80.084320,88.402779 77.552811,88.574341 75.050079,88.882393 
z"/>
<path fill="#1E299A" opacity="1.000000" stroke="none" 
	d="
M151.823151,96.156754 
	C148.968475,96.422195 145.338379,97.923698 143.409378,96.713585 
	C138.305527,93.511780 139.600662,87.084892 145.358292,84.943283 
	C146.866791,84.382179 148.543457,84.273277 150.563416,84.259293 
	C151.048309,86.041374 151.112701,87.520874 150.993332,88.640976 
	C149.705978,88.187912 148.238358,87.606430 147.574432,88.101898 
	C146.184357,89.139297 145.217636,90.743996 144.077042,92.115715 
	C145.615692,92.732498 147.117172,93.503960 148.711960,93.887001 
	C149.317184,94.032356 150.137207,93.283463 151.128235,93.176010 
	C151.539154,94.325493 151.681152,95.241119 151.823151,96.156754 
z"/>
<path fill="#14219D" opacity="1.000000" stroke="none" 
	d="
M228.079071,77.582474 
	C229.284592,77.123245 230.434723,77.123245 232.122284,77.123245 
	C232.122284,83.210197 232.221024,89.128662 232.023392,95.037216 
	C231.991104,96.002426 230.651062,96.923882 229.516357,97.862930 
	C228.747238,93.384979 228.321228,88.913254 228.031631,84.432716 
	C227.894485,82.311073 228.018158,80.172562 228.079071,77.582474 
z"/>
<path fill="#2318A2" opacity="1.000000" stroke="none" 
	d="
M112.826591,78.030807 
	C112.881577,77.862030 112.936569,77.693253 113.472954,77.301422 
	C114.607269,77.699287 115.807106,78.303276 115.826904,78.943748 
	C115.990723,84.244225 116.043709,89.555923 115.823608,94.851486 
	C115.793068,95.586319 114.088501,96.251572 113.158890,96.949036 
	C113.158890,96.949028 112.994881,97.000450 112.981293,96.542160 
	C112.920662,90.066177 112.873627,84.048492 112.826591,78.030807 
z"/>
<path fill="#364B9A" opacity="1.000000" stroke="none" 
	d="
M173.965622,142.991226 
	C173.372131,143.436386 172.778656,143.881546 171.824036,144.697739 
	C171.273590,145.367172 171.084290,145.665558 170.894974,145.963959 
	C170.894974,145.963959 170.978088,145.977493 170.718475,146.029083 
	C170.270767,146.374374 170.082672,146.668076 169.894577,146.961792 
	C169.894577,146.961792 169.977600,146.977844 169.718140,147.029144 
	C169.270645,147.374222 169.082596,147.667984 168.894547,147.961746 
	C168.894547,147.961746 168.977570,147.977829 168.718109,148.029099 
	C168.270737,148.374222 168.082840,148.668076 167.894943,148.961929 
	C167.894943,148.961929 167.977875,148.978088 167.718414,149.029419 
	C167.271301,149.374634 167.083649,149.668518 166.895996,149.962402 
	C166.895996,149.962402 166.978561,149.978806 166.719238,150.030365 
	C166.272568,150.375717 166.085236,150.669495 165.897888,150.963272 
	C165.897903,150.963272 165.979797,150.980026 165.720627,151.031921 
	C165.274475,151.377319 165.087509,151.670822 164.900528,151.964310 
	C164.900528,151.964310 164.981522,151.981598 164.722412,152.033875 
	C164.276520,152.379211 164.089752,152.672241 163.902985,152.965271 
	C163.902985,152.965271 163.983017,152.983124 163.723969,153.035721 
	C163.278229,153.380875 163.091522,153.673431 162.904800,153.965988 
	C162.904800,153.965988 162.984085,153.984283 162.725159,154.037201 
	C162.279526,154.382217 162.092804,154.674316 161.906082,154.966415 
	C161.906082,154.966415 161.984833,154.985001 161.726044,155.038254 
	C161.280533,155.383270 161.093811,155.675018 160.907074,155.966766 
	C160.907074,155.966766 160.985413,155.985565 160.726761,156.039093 
	C160.281433,156.384125 160.094757,156.675629 159.908081,156.967133 
	C159.908081,156.967133 159.985962,156.986130 159.727448,157.039917 
	C159.282379,157.384979 159.095810,157.676270 158.909241,157.967545 
	C158.909225,157.967545 158.986633,157.986771 158.728226,158.040802 
	C158.283356,158.385895 158.096893,158.676926 157.910431,158.967972 
	C157.910431,158.967972 157.987259,158.987442 157.729004,159.041748 
	C157.284363,159.386826 157.097977,159.677612 156.911591,159.968399 
	C156.911606,159.968399 156.987885,159.988068 156.729950,160.042755 
	C156.285995,160.388062 156.099991,160.678680 155.913971,160.969315 
	C155.913971,160.969315 155.989105,160.989334 155.731369,161.044617 
	C155.287155,161.389725 155.100662,161.679550 154.914169,161.969360 
	C154.914169,161.969360 154.992920,161.985092 154.664124,161.955002 
	C153.979156,161.312454 153.623001,160.700012 153.551270,159.934113 
	C159.251556,154.259491 164.667419,148.738312 170.360397,143.080200 
	C171.378952,142.234711 172.120392,141.526169 173.046616,141.091309 
	C173.569351,141.644241 173.907318,141.923492 174.175293,142.399841 
	C174.105316,142.596939 173.965622,142.991226 173.965622,142.991226 
z"/>
<path fill="#202A95" opacity="1.000000" stroke="none" 
	d="
M217.044342,92.005508 
	C217.010315,87.688210 216.838974,83.364464 217.041199,79.058258 
	C217.090240,78.014069 218.370773,77.027733 219.085052,76.014801 
	C219.743179,76.914078 220.929474,77.788612 220.972931,78.716682 
	C221.236908,84.352005 221.845795,90.073570 221.166962,95.622910 
	C220.433899,101.615532 217.609650,95.473686 215.412079,95.735001 
	C215.027588,94.999870 215.022232,94.545509 215.016876,94.091141 
	C215.443390,93.687859 215.869919,93.284576 216.648499,93.103577 
	C217.274002,94.445137 217.547455,95.564415 217.820908,96.683685 
	C218.371353,96.105560 218.921814,95.527428 219.472260,94.949295 
	C219.472260,89.247482 219.472260,83.545670 219.472260,77.843849 
	C219.176697,77.836678 218.881134,77.829506 218.585556,77.822327 
	C218.071823,82.550056 217.558075,87.277779 217.044342,92.005508 
z"/>
<path fill="#1A32AC" opacity="1.000000" stroke="none" 
	d="
M210.646423,77.948700 
	C210.759308,82.946198 210.872192,87.943687 210.942078,93.747437 
	C209.887589,95.071205 208.876099,95.588722 207.864594,96.106232 
	C207.864594,96.106232 207.944290,96.012451 207.959869,95.593597 
	C207.989151,90.705315 207.806107,86.221237 208.136734,81.775360 
	C208.235672,80.444954 209.769806,79.221275 210.646423,77.948700 
z"/>
<path fill="#22348B" opacity="1.000000" stroke="none" 
	d="
M172.342865,122.729889 
	C171.979675,121.204819 171.616501,119.679749 171.253311,118.154678 
	C172.748627,118.377747 174.683472,118.086739 175.657516,118.919502 
	C178.676468,121.500595 181.429428,124.421532 184.060562,127.408783 
	C184.782547,128.228485 184.715454,129.743195 185.010452,130.938965 
	C183.588669,131.015030 182.166901,131.091080 180.759079,130.676361 
	C180.933395,130.027283 181.093765,129.868988 181.558014,129.830963 
	C182.417328,129.808731 182.972763,129.666245 183.528214,129.523758 
	C180.058243,125.914764 176.588272,122.305779 173.118301,118.696785 
	C172.794189,119.019775 172.470062,119.342766 172.145935,119.665764 
	C172.505280,120.370514 172.864639,121.075272 172.998322,122.012497 
	C172.629410,122.406616 172.486145,122.568253 172.342865,122.729889 
z"/>
<path fill="#191DA7" opacity="1.000000" stroke="none" 
	d="
M151.177094,89.000366 
	C151.112701,87.520874 151.048309,86.041374 150.963715,84.213501 
	C150.925247,82.925797 150.906998,81.986465 151.000504,80.429565 
	C151.406311,79.531166 151.700363,79.250343 152.316101,78.959175 
	C152.850250,78.918861 153.062714,78.888893 153.275177,78.858925 
	C153.275177,78.858925 153.684418,78.884613 153.844147,79.461609 
	C154.005096,83.975838 154.202454,87.927864 153.907166,91.842728 
	C153.795303,93.325851 152.547607,94.723320 151.817642,96.159828 
	C151.817642,96.159828 151.822937,96.119331 151.823044,96.138046 
	C151.681152,95.241119 151.539154,94.325493 151.188110,92.784653 
	C151.045074,91.106422 151.111084,90.053398 151.177094,89.000366 
z"/>
<path fill="#282481" opacity="1.000000" stroke="none" 
	d="
M42.772736,76.601791 
	C42.476013,77.183464 41.657776,77.420128 41.664265,77.631462 
	C41.864845,84.166069 42.146103,90.698189 42.680695,97.496231 
	C41.630405,96.863922 39.239300,96.034653 39.176941,95.056862 
	C38.833710,89.675224 38.891518,84.246094 39.249233,78.862328 
	C39.311905,77.919044 41.453960,77.113907 42.772736,76.601791 
z"/>
<path fill="#162292" opacity="1.000000" stroke="none" 
	d="
M210.639069,77.566956 
	C209.769806,79.221275 208.235672,80.444954 208.136734,81.775360 
	C207.806107,86.221237 207.989151,90.705315 207.939392,95.651627 
	C207.272537,95.090935 206.131180,94.070160 206.096390,93.012962 
	C205.913712,87.460938 206.010925,81.899696 206.010925,75.547920 
	C207.897293,76.216324 209.264511,76.700768 210.639069,77.566956 
z"/>
<path fill="#BDDDFB" opacity="1.000000" stroke="none" 
	d="
M153.266830,160.087555 
	C153.623001,160.700012 153.979156,161.312454 154.645691,161.919342 
	C153.350372,162.614426 151.797318,163.507675 150.125031,163.964752 
	C148.233383,164.481766 146.234711,164.607239 143.817352,164.856934 
	C144.197632,162.863129 145.043106,160.915344 145.901520,158.526123 
	C145.914444,158.084656 146.069748,157.934753 146.430756,158.016876 
	C148.950119,158.761841 151.108475,159.424698 153.266830,160.087555 
z"/>
<path fill="#233097" opacity="1.000000" stroke="none" 
	d="
M151.994415,78.969528 
	C151.700363,79.250343 151.406311,79.531166 150.959808,80.078812 
	C147.898499,80.345634 144.989624,80.345634 141.228027,80.345634 
	C141.699051,79.208778 142.042435,77.435783 142.511246,77.401970 
	C145.506958,77.185905 148.530273,77.352348 151.770676,77.943642 
	C151.996857,78.494347 151.994415,78.969528 151.994415,78.969528 
z"/>
<path fill="#202D98" opacity="1.000000" stroke="none" 
	d="
M151.890381,96.541420 
	C152.547607,94.723320 153.795303,93.325851 153.907166,91.842728 
	C154.202454,87.927864 154.005096,83.975838 154.011841,79.579559 
	C154.596924,84.915848 155.181534,90.710472 155.726913,96.508797 
	C155.751785,96.773361 155.407028,97.322731 155.261551,97.313469 
	C154.158264,97.243164 153.061752,97.066505 151.890381,96.541420 
z"/>
<path fill="#191CA9" opacity="1.000000" stroke="none" 
	d="
M216.934235,92.142464 
	C217.558075,87.277779 218.071823,82.550056 218.585556,77.822327 
	C218.881134,77.829506 219.176697,77.836678 219.472260,77.843849 
	C219.472260,83.545670 219.472260,89.247482 219.472260,94.949295 
	C218.921814,95.527428 218.371353,96.105560 217.820908,96.683685 
	C217.547455,95.564415 217.274002,94.445137 216.914520,92.978348 
	C216.828476,92.630829 216.824142,92.279419 216.934235,92.142464 
z"/>
<path fill="#C4E4FF" opacity="1.000000" stroke="none" 
	d="
M113.109940,76.041817 
	C110.975380,70.701500 111.582947,69.034851 115.529503,68.423508 
	C116.015862,70.754311 116.490791,73.030357 116.584686,75.652092 
	C115.172401,76.012459 114.141174,76.027138 113.109940,76.041817 
z"/>
<path fill="#22348B" opacity="1.000000" stroke="none" 
	d="
M180.521545,130.411362 
	C175.846970,131.670029 174.575745,133.685593 176.319183,137.308075 
	C176.112701,137.925339 175.949463,138.067337 175.497650,138.054047 
	C173.404663,135.998886 171.600235,134.099045 170.023926,131.975220 
	C170.404037,131.601883 170.556015,131.452499 170.966766,131.512909 
	C176.298691,134.188950 176.093323,129.211380 178.188248,126.989098 
	C179.428009,127.877716 180.341064,128.794205 181.254135,129.710693 
	C181.093765,129.868988 180.933395,130.027283 180.521545,130.411362 
z"/>
<path fill="#333692" opacity="1.000000" stroke="none" 
	d="
M262.583405,78.981750 
	C261.106567,84.066017 260.993896,89.318588 262.626404,95.019165 
	C258.359833,90.621788 258.359192,84.357941 262.583405,78.981750 
z"/>
<path fill="#202A95" opacity="1.000000" stroke="none" 
	d="
M75.502426,88.947693 
	C77.552811,88.574341 80.084320,88.402779 82.542740,87.884529 
	C83.408134,87.702118 84.094521,86.670547 84.862648,86.026695 
	C84.103951,85.600914 83.345253,85.175133 82.267906,84.481293 
	C81.770752,83.213837 81.592247,82.214439 81.765121,81.153954 
	C82.997894,80.750710 83.879288,80.408546 84.760681,80.066376 
	C85.320892,82.753387 85.881104,85.440399 86.625946,89.013000 
	C82.475777,89.013000 79.215279,89.013000 75.502426,88.947693 
z"/>
<path fill="#202A95" opacity="1.000000" stroke="none" 
	d="
M76.145874,80.259735 
	C75.312080,79.837204 74.478294,79.414688 73.276047,78.957520 
	C75.691063,75.270447 79.065033,75.138474 82.673058,77.665146 
	C81.989822,78.789467 81.450638,79.509338 80.518364,80.125748 
	C78.798805,80.101448 77.472343,80.180588 76.145874,80.259735 
z"/>
<path fill="#162292" opacity="1.000000" stroke="none" 
	d="
M113.072540,76.288696 
	C114.141174,76.027138 115.172401,76.012459 116.589691,76.015579 
	C117.080704,82.290260 117.095078,88.550529 117.328537,94.802620 
	C117.446632,97.964973 115.972107,98.476089 113.270447,97.350708 
	C114.088501,96.251572 115.793068,95.586319 115.823608,94.851486 
	C116.043709,89.555923 115.990723,84.244225 115.826904,78.943748 
	C115.807106,78.303276 114.607269,77.699287 113.557037,77.048782 
	C113.159714,77.019188 113.035149,76.535576 113.072540,76.288696 
z"/>
<path fill="#22348B" opacity="1.000000" stroke="none" 
	d="
M166.625961,127.215027 
	C170.349731,128.516785 170.953064,125.115417 172.463226,122.996071 
	C172.486145,122.568253 172.629410,122.406616 173.283447,122.169701 
	C174.524002,123.105568 175.253799,124.116714 175.728043,125.419235 
	C172.094131,126.049614 169.700760,127.227791 170.708008,131.303101 
	C170.556015,131.452499 170.404037,131.601883 169.744125,131.826019 
	C168.091766,130.665039 166.947342,129.429337 166.018600,127.957329 
	C166.364853,127.552368 166.495407,127.383698 166.625961,127.215027 
z"/>
<path fill="#C4E4FF" opacity="1.000000" stroke="none" 
	d="
M162.046829,93.980186 
	C161.696747,90.288841 161.118835,86.601517 161.053513,82.905136 
	C160.969513,78.151123 161.296768,73.389847 161.723328,68.783630 
	C162.015472,77.283768 162.031158,85.631981 162.046829,93.980186 
z"/>
<path fill="#7171B0" opacity="1.000000" stroke="none" 
	d="
M162.230255,94.051270 
	C162.031158,85.631981 162.015472,77.283768 161.992645,68.466873 
	C161.985504,67.998192 162.386978,67.862350 162.594040,67.815926 
	C162.863663,76.274048 162.926224,84.778587 162.888763,93.762085 
	C162.788727,94.241043 162.413666,94.122345 162.230255,94.051270 
z"/>
<path fill="#202A95" opacity="1.000000" stroke="none" 
	d="
M72.613098,79.097153 
	C72.900291,83.720184 72.874649,88.530060 72.876755,93.761108 
	C68.896576,89.370560 70.555176,84.329025 72.613098,79.097153 
z"/>
<path fill="#162292" opacity="1.000000" stroke="none" 
	d="
M208.020844,96.435577 
	C208.876099,95.588722 209.887589,95.071205 210.994263,94.203079 
	C212.136795,93.908081 213.184113,93.963676 214.624161,94.055214 
	C215.022232,94.545509 215.027588,94.999870 215.043182,95.794815 
	C212.908752,97.956017 210.704651,99.127205 208.020844,96.435577 
z"/>
<path fill="#C4E4FF" opacity="1.000000" stroke="none" 
	d="
M112.592628,78.367035 
	C112.873627,84.048492 112.920662,90.066177 112.895462,96.546524 
	C112.668365,90.907211 112.513519,84.805229 112.592628,78.367035 
z"/>
<path fill="#1F26A5" opacity="1.000000" stroke="none" 
	d="
M80.911453,80.229202 
	C81.450638,79.509338 81.989822,78.789467 82.880768,77.985641 
	C83.710098,78.440300 84.187660,78.978920 84.712952,79.791962 
	C83.879288,80.408546 82.997894,80.750710 81.617889,81.029037 
	C80.975540,80.740891 80.906265,80.495560 80.911453,80.229202 
z"/>
<path fill="#BDDDFB" opacity="1.000000" stroke="none" 
	d="
M138.897568,165.879318 
	C140.059814,165.214813 141.661499,164.584412 143.256302,164.300430 
	C141.945282,165.069046 140.641144,165.491241 138.897568,165.879318 
z"/>
<path fill="#22348B" opacity="1.000000" stroke="none" 
	d="
M176.533463,137.585815 
	C177.506607,138.912521 178.222244,140.436752 178.477173,141.995789 
	C177.836807,141.859085 177.657181,141.687546 177.474762,141.246201 
	C176.910065,140.054031 176.348129,139.131683 175.786209,138.209335 
	C175.949463,138.067337 176.112701,137.925339 176.533463,137.585815 
z"/>
<path fill="#333692" opacity="1.000000" stroke="none" 
	d="
M265.748535,97.481064 
	C267.354156,97.148247 269.263763,97.092239 271.642090,97.070480 
	C270.091370,97.322456 268.071930,97.540169 265.748535,97.481064 
z"/>
<path fill="#22348B" opacity="1.000000" stroke="none" 
	d="
M178.280609,142.293320 
	C177.988052,142.863403 177.431320,143.170761 176.528000,143.432541 
	C175.786667,143.273239 175.391953,143.159531 174.997223,143.045807 
	C174.997223,143.045807 174.999313,142.994659 174.923309,142.768280 
	C174.847305,142.541916 174.902451,142.056381 175.091980,141.723969 
	C176.013519,141.433044 176.745529,141.474533 177.477554,141.516022 
	C177.657181,141.687546 177.836807,141.859085 178.280609,142.293320 
z"/>
<path fill="#22348B" opacity="1.000000" stroke="none" 
	d="
M164.522400,125.583908 
	C165.291122,125.854958 165.804443,126.324043 166.471863,127.004074 
	C166.495407,127.383698 166.364853,127.552368 165.758179,127.832230 
	C164.783340,127.366829 164.284622,126.790237 163.785889,126.213638 
	C163.946259,126.069740 164.106628,125.925835 164.522400,125.583908 
z"/>
<path fill="#3949A9" opacity="1.000000" stroke="none" 
	d="
M9.179981,147.103561 
	C8.978311,146.248734 9.010800,145.485123 9.334108,144.554535 
	C9.768772,144.920944 9.912619,145.454376 10.056467,145.987793 
	C10.036800,146.181976 10.017134,146.376160 9.956141,146.860504 
	C9.747925,147.165359 9.581034,147.180069 9.179981,147.103561 
z"/>
<path fill="#B7D5F8" opacity="1.000000" stroke="none" 
	d="
M58.811062,142.501328 
	C58.539543,142.721405 58.103077,142.781586 57.345341,142.751495 
	C57.564754,142.554626 58.105434,142.448013 58.811062,142.501328 
z"/>
<path fill="#A9C6F1" opacity="1.000000" stroke="none" 
	d="
M282.842896,142.522705 
	C282.558105,142.758240 282.106445,142.821487 281.322449,142.789871 
	C281.552094,142.580154 282.114014,142.465286 282.842896,142.522705 
z"/>
<path fill="#A9C6F1" opacity="1.000000" stroke="none" 
	d="
M266.842896,142.522705 
	C266.558105,142.758240 266.106445,142.821487 265.322449,142.789871 
	C265.552094,142.580139 266.114014,142.465286 266.842896,142.522705 
z"/>
<path fill="#A9C6F1" opacity="1.000000" stroke="none" 
	d="
M250.842880,142.522736 
	C250.558105,142.758240 250.106415,142.821487 249.322418,142.789871 
	C249.552063,142.580154 250.113998,142.465302 250.842880,142.522736 
z"/>
<path fill="#A9C6F1" opacity="1.000000" stroke="none" 
	d="
M234.842880,142.522736 
	C234.558105,142.758240 234.106415,142.821487 233.322418,142.789871 
	C233.552063,142.580154 234.113998,142.465302 234.842880,142.522736 
z"/>
<path fill="#A9C6F1" opacity="1.000000" stroke="none" 
	d="
M218.842880,142.522720 
	C218.558105,142.758240 218.106415,142.821487 217.322418,142.789856 
	C217.552063,142.580154 218.113998,142.465302 218.842880,142.522720 
z"/>
<path fill="#B7D5F8" opacity="1.000000" stroke="none" 
	d="
M106.811066,142.501312 
	C106.539551,142.721405 106.103081,142.781570 105.345352,142.751495 
	C105.564758,142.554626 106.105438,142.448013 106.811066,142.501312 
z"/>
<path fill="#B7D5F8" opacity="1.000000" stroke="none" 
	d="
M90.811066,142.501312 
	C90.539551,142.721405 90.103081,142.781570 89.345352,142.751495 
	C89.564758,142.554626 90.105438,142.448013 90.811066,142.501312 
z"/>
<path fill="#B7D5F8" opacity="1.000000" stroke="none" 
	d="
M74.811066,142.501312 
	C74.539551,142.721390 74.103081,142.781570 73.345352,142.751480 
	C73.564758,142.554611 74.105431,142.447998 74.811066,142.501312 
z"/>
<path fill="#B7D5F8" opacity="1.000000" stroke="none" 
	d="
M42.811062,142.501312 
	C42.539543,142.721405 42.103077,142.781586 41.345341,142.751495 
	C41.564754,142.554611 42.105434,142.448013 42.811062,142.501312 
z"/>
<path fill="#B7D5F8" opacity="1.000000" stroke="none" 
	d="
M26.811062,142.501312 
	C26.539547,142.721405 26.103081,142.781586 25.345345,142.751495 
	C25.564754,142.554626 26.105433,142.448013 26.811062,142.501312 
z"/>
<path fill="#A9C6F1" opacity="1.000000" stroke="none" 
	d="
M16.036457,31.842770 
	C15.594309,32.020332 15.169088,32.016991 14.376503,31.796310 
	C14.009139,31.578966 14.036641,31.105053 14.036641,31.105053 
	C14.493629,31.099960 14.950617,31.094868 15.735420,31.194191 
	C16.063236,31.298605 16.053383,31.661863 16.036457,31.842770 
z"/>
<path fill="#BDDDFB" opacity="1.000000" stroke="none" 
	d="
M160.138779,156.850769 
	C160.094757,156.675629 160.281433,156.384125 160.717407,155.999924 
	C160.767609,156.182938 160.568542,156.458664 160.138779,156.850769 
z"/>
<path fill="#BDDDFB" opacity="1.000000" stroke="none" 
	d="
M164.134644,152.848587 
	C164.089752,152.672241 164.276520,152.379211 164.713745,151.993393 
	C164.764893,152.177719 164.565582,152.454819 164.134644,152.848587 
z"/>
<path fill="#BDDDFB" opacity="1.000000" stroke="none" 
	d="
M165.132645,151.847656 
	C165.087509,151.670822 165.274475,151.377319 165.712311,150.990967 
	C165.763702,151.175735 165.564224,151.453369 165.132645,151.847656 
z"/>
<path fill="#BDDDFB" opacity="1.000000" stroke="none" 
	d="
M166.130524,150.846786 
	C166.085236,150.669495 166.272568,150.375717 166.711121,149.989075 
	C166.762619,150.174240 166.562897,150.452271 166.130524,150.846786 
z"/>
<path fill="#BDDDFB" opacity="1.000000" stroke="none" 
	d="
M167.128998,149.846100 
	C167.083649,149.668518 167.271301,149.374634 167.710449,148.987946 
	C167.761948,149.173355 167.561981,149.451584 167.128998,149.846100 
z"/>
<path fill="#BDDDFB" opacity="1.000000" stroke="none" 
	d="
M168.128159,148.845795 
	C168.082840,148.668076 168.270737,148.374222 168.710205,147.987549 
	C168.761642,148.173050 168.561508,148.451355 168.128159,148.845795 
z"/>
<path fill="#202D98" opacity="1.000000" stroke="none" 
	d="
M152.316101,78.959175 
	C151.994415,78.969528 151.996857,78.494347 151.999512,78.256805 
	C152.346771,78.129501 152.691376,78.239731 153.155579,78.604446 
	C153.062714,78.888893 152.850250,78.918861 152.316101,78.959175 
z"/>
<path fill="#BDDDFB" opacity="1.000000" stroke="none" 
	d="
M163.136078,153.849380 
	C163.091522,153.673431 163.278229,153.380875 163.715057,152.995697 
	C163.765915,153.179657 163.566635,153.456223 163.136078,153.849380 
z"/>
<path fill="#BDDDFB" opacity="1.000000" stroke="none" 
	d="
M162.137115,154.849930 
	C162.092804,154.674316 162.279526,154.382217 162.716064,153.997559 
	C162.766617,154.181137 162.567368,154.457291 162.137115,154.849930 
z"/>
<path fill="#BDDDFB" opacity="1.000000" stroke="none" 
	d="
M161.137939,155.850357 
	C161.093811,155.675018 161.280533,155.383270 161.716797,154.998871 
	C161.767151,155.182144 161.567963,155.458038 161.137939,155.850357 
z"/>
<path fill="#BDDDFB" opacity="1.000000" stroke="none" 
	d="
M159.139725,157.851151 
	C159.095810,157.676270 159.282379,157.384979 159.718002,157.000946 
	C159.768112,157.183731 159.569153,157.459244 159.139725,157.851151 
z"/>
<path fill="#BDDDFB" opacity="1.000000" stroke="none" 
	d="
M158.140717,158.851624 
	C158.096893,158.676926 158.283356,158.385895 158.718628,158.002106 
	C158.768631,158.184662 158.569809,158.459961 158.140717,158.851624 
z"/>
<path fill="#BDDDFB" opacity="1.000000" stroke="none" 
	d="
M157.141663,159.852066 
	C157.097977,159.677612 157.284363,159.386826 157.719299,159.003311 
	C157.769165,159.185623 157.570435,159.460678 157.141663,159.852066 
z"/>
<path fill="#BDDDFB" opacity="1.000000" stroke="none" 
	d="
M156.143585,160.852798 
	C156.099991,160.678680 156.285995,160.388062 156.720154,160.004608 
	C156.769928,160.186615 156.571564,160.461456 156.143585,160.852798 
z"/>
<path fill="#BDDDFB" opacity="1.000000" stroke="none" 
	d="
M155.143707,161.853149 
	C155.100662,161.679550 155.287155,161.389725 155.721436,161.007034 
	C155.770569,161.188416 155.571915,161.462677 155.143707,161.853149 
z"/>
<path fill="#A9C6F1" opacity="1.000000" stroke="none" 
	d="
M196.909912,142.563736 
	C196.848007,142.746490 196.678864,142.800659 196.249130,142.799103 
	C196.259933,142.640640 196.531296,142.537888 196.909912,142.563736 
z"/>
<path fill="#B7D5F8" opacity="1.000000" stroke="none" 
	d="
M119.891312,142.581573 
	C119.821342,142.740479 119.657478,142.777100 119.253937,142.735840 
	C119.225372,142.359848 119.486412,142.293625 119.891312,142.581573 
z"/>
<path fill="#BDDDFB" opacity="1.000000" stroke="none" 
	d="
M174.902451,142.056381 
	C174.902451,142.056381 174.847305,142.541916 174.900681,142.780273 
	C174.954056,143.018631 174.459869,143.013977 174.212738,143.002594 
	C173.965622,142.991226 174.105316,142.596939 174.366714,142.427338 
	C174.628113,142.257736 174.960480,142.060791 174.948944,142.028076 
	C174.937408,141.995361 174.902451,142.056381 174.902451,142.056381 
z"/>
<path fill="#BDDDFB" opacity="1.000000" stroke="none" 
	d="
M169.127838,147.845673 
	C169.082596,147.667984 169.270645,147.374222 169.710266,146.987610 
	C169.761581,147.173050 169.561356,147.451324 169.127838,147.845673 
z"/>
<path fill="#BDDDFB" opacity="1.000000" stroke="none" 
	d="
M175.208328,143.269043 
	C175.391953,143.159531 175.786667,143.273239 176.382416,143.628433 
	C176.195450,143.744034 175.807434,143.618149 175.208328,143.269043 
z"/>
<path fill="#BDDDFB" opacity="1.000000" stroke="none" 
	d="
M171.130646,145.840408 
	C171.084290,145.665558 171.273590,145.367172 171.711121,144.960220 
	C171.761673,145.140060 171.563995,145.428452 171.130646,145.840408 
z"/>
<path fill="#333692" opacity="1.000000" stroke="none" 
	d="
M263.813843,96.565834 
	C264.003143,96.429314 264.338440,96.525253 264.837708,96.833694 
	C264.654449,96.963562 264.307129,96.880928 263.813843,96.565834 
z"/>
<path fill="#BDDDFB" opacity="1.000000" stroke="none" 
	d="
M170.127869,146.845703 
	C170.082672,146.668076 170.270767,146.374374 170.710388,145.987778 
	C170.761642,146.173126 170.561386,146.451370 170.127869,146.845703 
z"/>
<path fill="#333692" opacity="1.000000" stroke="none" 
	d="
M262.712463,95.622131 
	C262.933289,95.528885 263.258789,95.673210 263.641235,96.094406 
	C263.404510,96.200752 263.110870,96.030228 262.712463,95.622131 
z"/>
<path fill="#191DA7" opacity="1.000000" stroke="none" 
	d="
M14.328139,30.808609 
	C14.036641,31.105053 14.009139,31.578966 14.058258,31.811165 
	C14.107376,32.043362 13.941198,31.995731 13.503260,32.112259 
	C12.715426,33.446579 12.061853,34.663876 12.059871,35.882233 
	C12.004527,69.879234 11.994342,103.876396 12.089642,137.873215 
	C12.093534,139.262299 13.192492,140.648315 13.781256,142.035751 
	C13.781255,142.035751 13.981954,142.430618 14.024137,142.648239 
	C14.053736,143.053680 14.041152,143.241516 14.015314,143.711304 
	C14.001579,144.437302 14.001100,144.881332 14.001128,145.658096 
	C12.948612,145.992050 11.895588,145.993256 10.449514,145.991119 
	C9.912619,145.454376 9.768772,144.920944 9.433096,144.185486 
	C9.206162,142.600403 9.171060,141.217361 9.412394,139.075714 
	C9.788966,137.665161 9.976373,137.013275 9.976716,136.361298 
	C9.993651,104.172913 10.003175,71.984528 9.965196,39.796188 
	C9.963695,38.524178 9.492674,37.252720 9.240423,35.981007 
	C9.205523,33.635616 9.170622,31.290226 9.389774,28.497993 
	C9.643826,28.051153 10.048903,28.015188 10.048903,28.015188 
	C108.371796,28.011511 206.694687,28.007833 305.480011,28.006763 
	C305.955261,67.025665 305.968048,106.041954 305.958740,145.525757 
	C305.202332,145.994263 304.468018,145.995255 303.365662,145.992981 
	C302.815399,145.447098 302.633209,144.904495 302.223145,144.179153 
	C301.985077,143.817230 301.974884,143.638016 301.941101,143.190582 
	C301.917511,142.922394 301.898376,142.975555 302.240967,142.782120 
	C303.050903,141.073990 303.922607,139.560226 303.926086,138.044479 
	C304.003540,104.076874 304.006165,70.109001 303.912018,36.141483 
	C303.908142,34.745617 302.826080,33.352737 302.246338,31.958466 
	C301.995087,31.674860 301.743835,31.391253 301.229828,30.991146 
	C299.208435,30.583662 297.449951,30.038847 295.691162,30.038061 
	C203.635513,29.996870 111.579826,29.999121 19.524153,30.023043 
	C17.889273,30.023468 16.254475,30.342043 14.328139,30.808609 
z"/>
<path fill="#3949A9" opacity="1.000000" stroke="none" 
	d="
M9.992846,27.821482 
	C10.048903,28.015188 9.643826,28.051153 9.440771,28.061668 
	C9.206738,27.867123 9.175758,27.662060 9.331682,27.208357 
	C9.745466,27.127609 9.884868,27.350296 9.992846,27.821482 
z"/>
<path fill="#B7DAF6" opacity="1.000000" stroke="none" 
	d="
M95.426933,91.289429 
	C95.448044,87.935867 95.362404,84.931168 95.941147,82.060410 
	C96.126915,81.138924 98.161446,79.892029 99.177925,80.033287 
	C100.186287,80.173424 101.560364,81.779739 101.744232,82.910484 
	C102.139290,85.340042 102.166779,87.926765 101.760040,90.351059 
	C101.533081,91.703812 100.341682,93.535233 99.195969,93.888084 
	C98.300491,94.163879 96.806091,92.495018 95.426933,91.289429 
z"/>
<path fill="#B7DAF6" opacity="1.000000" stroke="none" 
	d="
M247.753983,93.952614 
	C243.614044,94.601509 243.045532,91.752571 243.214111,89.365143 
	C243.434631,86.242241 244.570847,83.184006 245.313141,80.097961 
	C246.735886,80.561546 249.404587,81.073486 249.388779,81.481247 
	C249.228867,85.601883 248.629776,89.705482 247.753983,93.952614 
z"/>
<path fill="#233097" opacity="1.000000" stroke="none" 
	d="
M302.195679,32.428394 
	C302.826080,33.352737 303.908142,34.745617 303.912018,36.141483 
	C304.006165,70.109001 304.003540,104.076874 303.926086,138.044479 
	C303.922607,139.560226 303.050903,141.073990 302.222931,142.760223 
	C301.947632,131.982376 302.088623,121.033073 302.107208,110.083565 
	C302.150909,84.355202 302.136139,58.626743 302.195679,32.428394 
z"/>
<path fill="#233097" opacity="1.000000" stroke="none" 
	d="
M13.838037,141.566925 
	C13.192492,140.648315 12.093534,139.262299 12.089642,137.873215 
	C11.994342,103.876396 12.004527,69.879234 12.059871,35.882233 
	C12.061853,34.663876 12.715426,33.446579 13.425917,32.073677 
	C13.822615,68.311737 13.858717,104.704910 13.838037,141.566925 
z"/>
<path fill="#AECCF5" opacity="1.000000" stroke="none" 
	d="
M144.010468,148.040573 
	C150.102142,142.071609 156.193802,136.102646 162.641357,130.065308 
	C162.997238,129.996918 162.942596,130.004395 162.979248,130.290131 
	C163.342361,130.736221 163.668823,130.896606 163.999939,131.027252 
	C164.004593,130.997543 163.944778,131.003876 163.913712,131.257599 
	C163.905869,131.680176 163.929092,131.849030 163.799545,132.254471 
	C163.779312,133.661926 163.911850,134.832779 163.707458,136.024231 
	C158.710358,140.264969 154.050201,144.485153 149.291153,148.794876 
	C149.778305,150.244919 150.279007,151.735291 150.578125,152.625595 
	C148.853897,153.157684 147.426865,153.598053 145.712616,153.893082 
	C144.953751,151.845337 144.482117,149.942963 144.010468,148.040573 
z"/>
<path fill="#A0B7F2" opacity="1.000000" stroke="none" 
	d="
M163.511200,126.087021 
	C164.284622,126.790237 164.783340,127.366829 165.542480,128.068527 
	C166.947342,129.429337 168.091766,130.665039 169.516022,132.049973 
	C171.600235,134.099045 173.404663,135.998886 175.497650,138.054047 
	C176.348129,139.131683 176.910065,140.054031 177.474762,141.246201 
	C176.745529,141.474533 176.013519,141.433044 175.091980,141.723969 
	C174.902451,142.056381 174.937408,141.995361 175.170990,141.669464 
	C174.582947,140.907394 173.761322,140.471222 172.969666,140.018204 
	C172.999634,140.001358 172.948944,140.048019 173.256104,139.796844 
	C173.020187,139.021790 172.477127,138.497879 171.978622,137.975403 
	C172.023178,137.976837 172.025986,138.065948 171.877960,137.704651 
	C171.138214,137.246964 170.546509,137.150558 169.977097,137.027924 
	C169.999390,137.001709 169.972839,137.065216 170.129089,136.682358 
	C169.835144,136.208755 169.384949,136.118027 168.964813,136.016129 
	C168.994873,136.004959 168.972641,136.065109 169.129547,135.682266 
	C168.836014,135.208939 168.385574,135.118454 167.965088,135.016464 
	C167.995056,135.004944 167.972000,135.064880 168.129105,134.682251 
	C167.835876,134.209167 167.385529,134.118698 166.965149,134.016571 
	C166.995087,134.004913 166.971741,134.064804 167.128662,133.682465 
	C166.835464,133.209579 166.385330,133.119034 165.965149,133.016693 
	C165.995102,133.004898 165.971497,133.064789 166.127777,132.682999 
	C165.834488,132.210419 165.384918,132.119629 164.965363,132.016968 
	C164.995392,132.005081 164.970291,132.064575 165.131821,131.688080 
	C164.843826,131.209000 164.394302,131.106430 163.944778,131.003876 
	C163.944778,131.003876 164.004593,130.997543 164.142365,130.647156 
	C163.834290,130.199310 163.388443,130.101852 162.942596,130.004395 
	C162.942596,130.004395 162.997238,129.996918 162.984741,130.020844 
	C162.505737,129.035004 161.947815,128.050201 161.658691,126.991982 
	C161.607803,126.805717 162.681946,126.312088 163.511200,126.087021 
z"/>
<path fill="#BDDDFB" opacity="1.000000" stroke="none" 
	d="
M143.724747,148.183289 
	C144.482117,149.942963 144.953751,151.845337 145.711411,154.282410 
	C146.021530,155.856308 146.045639,156.895538 146.069748,157.934753 
	C146.069748,157.934753 145.914444,158.084656 145.837006,158.159851 
	C141.786331,154.583633 140.962708,151.066681 143.724747,148.183289 
z"/>
<path fill="#BDDDFB" opacity="1.000000" stroke="none" 
	d="
M271.666748,83.255981 
	C269.665833,84.671158 267.428802,85.749962 265.191803,86.828758 
	C264.899139,86.352783 264.606476,85.876816 264.313812,85.400841 
	C264.639008,83.704811 264.964233,82.008781 265.629181,78.540924 
	C268.091156,80.399109 269.760925,81.659355 271.666748,83.255981 
z"/>
<path fill="#3949A9" opacity="1.000000" stroke="none" 
	d="
M9.143206,36.442413 
	C9.492674,37.252720 9.963695,38.524178 9.965196,39.796188 
	C10.003175,71.984528 9.993651,104.172913 9.976716,136.361298 
	C9.976373,137.013275 9.788966,137.665161 9.464630,138.662994 
	C9.159639,122.077812 9.040766,105.146774 9.008716,88.215584 
	C8.976337,71.111748 9.030011,54.007751 9.143206,36.442413 
z"/>
<path fill="#BDDDFB" opacity="1.000000" stroke="none" 
	d="
M80.518364,80.125748 
	C80.906265,80.495560 80.975540,80.740891 81.266510,81.090118 
	C81.592247,82.214439 81.770752,83.213837 81.952133,84.595795 
	C79.857330,85.081207 77.759666,85.184067 74.907738,85.323914 
	C75.265442,83.539215 75.525154,82.243431 75.965370,80.603683 
	C77.472343,80.180588 78.798805,80.101448 80.518364,80.125748 
z"/>
<path fill="#BDDDFB" opacity="1.000000" stroke="none" 
	d="
M150.993332,88.640976 
	C151.111084,90.053398 151.045074,91.106422 150.919189,92.550812 
	C150.137207,93.283463 149.317184,94.032356 148.711960,93.887001 
	C147.117172,93.503960 145.615692,92.732498 144.077042,92.115715 
	C145.217636,90.743996 146.184357,89.139297 147.574432,88.101898 
	C148.238358,87.606430 149.705978,88.187912 150.993332,88.640976 
z"/>
<path fill="#C1E7F6" opacity="1.000000" stroke="none" 
	d="
M146.430756,158.016876 
	C146.045639,156.895538 146.021530,155.856308 145.998627,154.427765 
	C147.426865,153.598053 148.853897,153.157684 150.578125,152.625595 
	C150.279007,151.735291 149.778305,150.244919 149.291153,148.794876 
	C154.050201,144.485153 158.710358,140.264969 164.056946,136.070129 
	C166.108871,136.459824 167.474350,136.824203 168.898193,137.568054 
	C169.332138,139.704071 169.707703,141.460617 170.083282,143.217148 
	C164.667419,148.738312 159.251556,154.259491 153.551270,159.934113 
	C151.108475,159.424698 148.950119,158.761841 146.430756,158.016876 
M163.700943,140.170731 
	C163.619568,140.221252 163.538208,140.271790 163.700943,140.170731 
z"/>
<path fill="#BDDDFB" opacity="1.000000" stroke="none" 
	d="
M170.360397,143.080200 
	C169.707703,141.460617 169.332138,139.704071 168.929443,137.528412 
	C168.902344,137.109268 168.967773,137.032349 169.217743,137.080124 
	C169.636093,137.107010 169.804459,137.086105 169.972839,137.065216 
	C169.972839,137.065216 169.999390,137.001709 170.090271,137.410553 
	C170.796082,137.901581 171.411041,137.983765 172.025986,138.065948 
	C172.025986,138.065948 172.023178,137.976837 171.660416,138.229294 
	C171.848083,139.003845 172.398514,139.525925 172.948944,140.048019 
	C172.948944,140.048019 172.999634,140.001358 172.915649,140.210373 
	C172.831650,140.419388 172.861832,140.817627 172.861832,140.817627 
	C172.120392,141.526169 171.378952,142.234711 170.360397,143.080200 
z"/>
<path fill="#22348B" opacity="1.000000" stroke="none" 
	d="
M173.046616,141.091309 
	C172.861832,140.817627 172.831650,140.419388 172.885666,140.227219 
	C173.761322,140.471222 174.582947,140.907394 175.182526,141.702179 
	C174.960480,142.060791 174.628113,142.257736 174.436691,142.230255 
	C173.907318,141.923492 173.569351,141.644241 173.046616,141.091309 
z"/>
<path fill="#A0B7F2" opacity="1.000000" stroke="none" 
	d="
M175.983582,125.127861 
	C175.253799,124.116714 174.524002,123.105568 173.509094,121.937225 
	C172.864639,121.075272 172.505280,120.370514 172.145935,119.665764 
	C172.470062,119.342766 172.794189,119.019775 173.118301,118.696785 
	C176.588272,122.305779 180.058243,125.914764 183.528214,129.523758 
	C182.972763,129.666245 182.417328,129.808731 181.558014,129.830963 
	C180.341064,128.794205 179.428009,127.877716 178.226746,126.979279 
	C177.938568,126.997322 177.973618,127.069427 177.983032,126.758484 
	C177.638489,126.307159 177.284531,126.166779 176.961807,126.016647 
	C176.993042,126.006905 176.973587,126.069382 176.982895,125.758575 
	C176.638306,125.307228 176.284424,125.166695 175.967682,125.039124 
	C176.004822,125.052094 175.983582,125.127861 175.983582,125.127861 
z"/>
<path fill="#BDDDFB" opacity="1.000000" stroke="none" 
	d="
M170.966766,131.512909 
	C169.700760,127.227791 172.094131,126.049614 175.728043,125.419235 
	C175.983582,125.127861 176.004822,125.052094 175.797760,125.429382 
	C176.051666,125.894241 176.512634,125.981812 176.973587,126.069382 
	C176.973587,126.069382 176.993042,126.006905 176.791595,126.407028 
	C177.051315,126.894577 177.512466,126.982002 177.973618,127.069427 
	C177.973618,127.069427 177.938568,126.997322 177.900055,127.007141 
	C176.093323,129.211380 176.298691,134.188950 170.966766,131.512909 
z"/>
<path fill="#BDDDFB" opacity="1.000000" stroke="none" 
	d="
M168.871094,137.148926 
	C167.474350,136.824203 166.108871,136.459824 164.393890,136.049545 
	C163.911850,134.832779 163.779312,133.661926 164.051804,132.314713 
	C164.627991,132.113770 164.799149,132.089172 164.970291,132.064575 
	C164.970291,132.064575 164.995392,132.005081 164.986572,132.307404 
	C165.309006,132.761429 165.640244,132.913116 165.971497,133.064789 
	C165.971497,133.064789 165.995102,133.004898 165.987152,133.306717 
	C166.310043,133.760620 166.640884,133.912720 166.971741,134.064804 
	C166.971741,134.064804 166.995087,134.004913 166.988312,134.306061 
	C167.311691,134.759750 167.641846,134.912323 167.972000,135.064880 
	C167.972000,135.064880 167.995056,135.004944 167.989288,135.305359 
	C168.313232,135.758881 168.642944,135.912003 168.972641,136.065109 
	C168.972641,136.065109 168.994873,136.004959 168.932037,136.268707 
	C168.902039,136.699081 168.934906,136.865707 168.967773,137.032349 
	C168.967773,137.032349 168.902344,137.109268 168.871094,137.148926 
z"/>
<path fill="#22348B" opacity="1.000000" stroke="none" 
	d="
M165.131821,131.688080 
	C164.799149,132.089172 164.627991,132.113770 164.204559,132.078125 
	C163.929092,131.849030 163.905869,131.680176 163.913712,131.257599 
	C164.394302,131.106430 164.843826,131.209000 165.131821,131.688080 
z"/>
<path fill="#22348B" opacity="1.000000" stroke="none" 
	d="
M162.979248,130.290131 
	C163.388443,130.101852 163.834290,130.199310 164.137711,130.676880 
	C163.668823,130.896606 163.342361,130.736221 162.979248,130.290131 
z"/>
<path fill="#22348B" opacity="1.000000" stroke="none" 
	d="
M173.256104,139.796844 
	C172.398514,139.525925 171.848083,139.003845 171.615860,138.227859 
	C172.477127,138.497879 173.020187,139.021790 173.256104,139.796844 
z"/>
<path fill="#22348B" opacity="1.000000" stroke="none" 
	d="
M171.877960,137.704651 
	C171.411041,137.983765 170.796082,137.901581 170.067963,137.436768 
	C170.546509,137.150558 171.138214,137.246964 171.877960,137.704651 
z"/>
<path fill="#22348B" opacity="1.000000" stroke="none" 
	d="
M168.129105,134.682251 
	C167.641846,134.912323 167.311691,134.759750 166.958374,134.317719 
	C167.385529,134.118698 167.835876,134.209167 168.129105,134.682251 
z"/>
<path fill="#22348B" opacity="1.000000" stroke="none" 
	d="
M169.129547,135.682266 
	C168.642944,135.912003 168.313232,135.758881 167.959320,135.316864 
	C168.385574,135.118454 168.836014,135.208939 169.129547,135.682266 
z"/>
<path fill="#22348B" opacity="1.000000" stroke="none" 
	d="
M166.127777,132.682999 
	C165.640244,132.913116 165.309006,132.761429 164.956543,132.319290 
	C165.384918,132.119629 165.834488,132.210419 166.127777,132.682999 
z"/>
<path fill="#22348B" opacity="1.000000" stroke="none" 
	d="
M169.217743,137.080124 
	C168.934906,136.865707 168.902039,136.699081 168.901978,136.279877 
	C169.384949,136.118027 169.835144,136.208755 170.129089,136.682358 
	C169.804459,137.086105 169.636093,137.107010 169.217743,137.080124 
z"/>
<path fill="#22348B" opacity="1.000000" stroke="none" 
	d="
M167.128662,133.682465 
	C166.640884,133.912720 166.310043,133.760620 165.957199,133.318512 
	C166.385330,133.119034 166.835464,133.209579 167.128662,133.682465 
z"/>
<path fill="#AECCF5" opacity="1.000000" stroke="none" 
	d="
M163.578888,140.246521 
	C163.538208,140.271790 163.619568,140.221252 163.578888,140.246521 
z"/>
<path fill="#22348B" opacity="1.000000" stroke="none" 
	d="
M177.983032,126.758492 
	C177.512466,126.982002 177.051315,126.894577 176.760376,126.416771 
	C177.284531,126.166779 177.638489,126.307159 177.983032,126.758492 
z"/>
<path fill="#22348B" opacity="1.000000" stroke="none" 
	d="
M176.982895,125.758575 
	C176.512634,125.981812 176.051666,125.894241 175.760620,125.416412 
	C176.284424,125.166695 176.638306,125.307228 176.982895,125.758575 
z"/>
</svg>