<?xml version="1.0" standalone="no"?>
<!DOCTYPE svg PUBLIC "-//W3C//DTD SVG 20010904//EN"
 "http://www.w3.org/TR/2001/REC-SVG-20010904/DTD/svg10.dtd">
<svg version="1.0" xmlns="http://www.w3.org/2000/svg"
 width="300.000000pt" height="300.000000pt" viewBox="0 0 300.000000 300.000000"
 preserveAspectRatio="xMidYMid meet">
<metadata>
Created by potrace 1.10, written by Peter Selinger 2001-2011
</metadata>
<g transform="translate(0.000000,300.000000) scale(0.100000,-0.100000)"
fill="#000000" stroke="none">
<path d="M1670 2237 c-3 -3 -25 -6 -50 -8 -25 -1 -58 -12 -75 -23 -16 -12 -32
-20 -35 -20 -3 1 -16 -3 -30 -9 -14 -6 -28 -10 -32 -9 -5 1 -8 -5 -8 -13 0 -8
-6 -15 -13 -15 -7 0 -23 -14 -37 -31 -14 -17 -29 -36 -35 -43 -18 -21 -45 -77
-45 -92 0 -8 -6 -17 -14 -20 -10 -4 -13 -16 -9 -42 3 -28 2 -33 -6 -22 -7 10
-11 11 -11 3 0 -29 -21 -9 -48 45 -15 31 -39 63 -53 70 -13 7 -54 11 -93 11
-54 -2 -72 -6 -87 -22 -10 -12 -19 -23 -19 -26 1 -3 18 -18 40 -33 l39 -27 0
-283 c0 -156 -2 -295 -5 -309 -3 -17 -17 -33 -39 -45 -19 -10 -32 -21 -29 -25
2 -4 -1 -9 -7 -11 -13 -4 23 -48 40 -48 7 0 9 4 6 10 -4 6 2 7 18 1 30 -12 78
-16 97 -8 8 3 38 8 66 11 43 4 55 1 70 -15 9 -10 22 -19 27 -19 6 0 2 7 -9 16
-10 8 3 4 29 -10 26 -15 59 -26 72 -26 15 0 24 -5 22 -12 -4 -22 125 -21 240
2 143 27 224 26 289 -4 29 -13 54 -30 57 -37 4 -11 7 -12 18 -1 18 17 30 15
22 -5 -4 -11 -3 -14 5 -9 7 4 13 0 14 -11 4 -55 3 -70 -5 -88 -8 -18 -7 -18
14 2 30 30 29 80 -5 137 -50 86 -167 113 -352 82 -241 -40 -329 -39 -415 4
-50 26 -97 82 -105 127 -6 34 -8 35 -16 14 -4 -12 -5 -28 -1 -33 3 -6 2 -8 -4
-5 -5 4 -11 32 -12 64 -1 32 -4 109 -6 172 -4 119 6 182 20 129 4 -16 11 -28
16 -28 5 0 9 -12 9 -26 0 -15 4 -23 11 -19 6 4 9 1 7 -7 -2 -8 7 -34 19 -58
46 -96 66 -144 66 -157 0 -7 4 -13 7 -13 14 0 33 -61 23 -71 -15 -15 -63 7
-96 43 -33 36 -49 29 -21 -9 32 -43 65 -62 138 -80 66 -16 77 -16 192 1 174
25 164 20 164 76 l0 47 -50 6 c-27 3 -71 15 -96 26 -25 12 -49 19 -53 17 -3
-2 -17 -34 -31 -71 -24 -65 -25 -66 -60 -63 -43 4 -45 9 -192 348 -55 129
-101 236 -102 237 -1 1 1 -132 2 -295 4 -322 5 -327 60 -334 14 -2 27 -9 30
-15 3 -10 -24 -13 -113 -13 -88 0 -116 3 -113 12 3 7 19 16 38 19 18 4 36 12
40 18 12 20 21 650 10 671 -6 11 -26 22 -45 26 -67 12 -35 25 58 22 l92 -3 90
-210 c50 -115 107 -245 128 -289 20 -43 37 -82 37 -88 0 -19 24 -1 33 25 7 23
3 30 -32 62 -48 44 -105 152 -121 232 -33 158 37 336 165 421 83 54 168 75
288 70 119 -6 191 -29 255 -84 30 -26 42 -43 42 -63 0 -33 -16 -51 -45 -51
-27 0 -49 24 -64 72 -16 49 -50 74 -119 89 -124 25 -254 -12 -327 -93 -123
-136 -136 -360 -31 -533 22 -36 25 -38 32 -20 4 11 47 116 96 233 48 117 88
217 88 222 0 6 71 10 190 10 162 0 190 -2 190 -15 0 -13 -22 -15 -134 -15
-113 0 -135 -2 -140 -16 -3 -9 -6 -132 -6 -275 0 -208 3 -259 13 -259 29 0
116 31 141 51 25 19 26 25 26 114 0 103 -5 112 -64 122 -20 3 -36 11 -36 19 0
10 32 13 140 13 115 0 140 -3 140 -15 0 -8 -8 -14 -18 -14 -10 0 -28 -7 -40
-16 -21 -14 -22 -23 -22 -132 l0 -117 -113 -28 c-61 -15 -124 -27 -139 -27
-26 0 -28 -3 -28 -45 l0 -45 53 0 c166 0 294 -96 284 -213 -3 -29 -13 -60 -26
-78 -32 -43 -21 -45 19 -4 30 31 34 42 36 95 1 40 -3 64 -12 71 -8 6 -14 17
-14 23 0 15 -52 66 -68 66 -6 0 -15 7 -19 15 -8 14 -111 45 -164 50 -38 3 -52
14 -39 30 6 8 18 11 26 8 8 -3 14 -1 14 4 0 5 12 10 26 11 15 1 32 6 39 12 6
5 14 7 18 4 8 -8 68 6 63 14 -2 4 7 8 22 9 36 2 45 25 47 123 4 128 4 128 24
135 11 3 26 16 34 28 12 19 12 26 2 40 -11 16 -32 18 -144 19 -119 2 -132 0
-145 -17 -19 -26 -6 -49 39 -71 l35 -16 0 -74 0 -73 -37 -26 c-39 -26 -68 -32
-77 -16 -3 5 -6 56 -5 113 0 56 0 117 0 133 -3 129 0 210 8 218 4 4 58 9 118
10 70 1 115 7 125 14 8 7 18 10 22 6 4 -4 2 6 -4 22 -6 16 -9 44 -5 62 4 20 0
43 -9 62 -21 40 -95 101 -122 101 -13 0 -25 4 -28 9 -3 5 -20 11 -38 15 -49 9
-212 19 -218 13z m206 -113 c23 -9 36 -23 41 -41 3 -15 13 -34 20 -42 8 -7 11
-16 8 -19 -3 -3 -61 -5 -129 -4 l-122 2 -27 -41 c-15 -22 -27 -44 -27 -49 0
-4 -11 -27 -24 -51 -14 -24 -23 -46 -20 -50 2 -4 0 -10 -6 -14 -5 -3 -10 -15
-10 -27 0 -11 -7 -32 -15 -46 -18 -33 -50 -109 -60 -140 -6 -22 -8 -22 -25 -7
-10 9 -21 33 -26 53 -4 20 -9 44 -12 52 -2 8 -5 54 -7 101 -2 85 16 165 36
153 5 -3 6 2 3 11 -4 9 5 30 20 50 15 19 26 37 26 40 -2 15 85 65 159 92 29
11 150 -3 197 -23z m-281 -758 c96 -13 91 -68 -8 -80 -29 -3 -66 -8 -83 -12
-26 -5 -31 -3 -29 13 2 25 28 83 38 83 5 0 5 5 1 11 -4 8 -1 8 12 1 11 -5 42
-13 69 -16z"/>
<path d="M1611 1688 l-84 -201 28 -23 c28 -22 132 -60 141 -52 2 3 3 111 2
242 l-3 236 -84 -202z m54 -87 c0 -79 -4 -134 -11 -141 -13 -13 -79 12 -87 35
-4 8 -2 15 2 15 5 0 7 8 4 19 -3 10 0 22 6 25 6 4 11 19 11 34 0 21 2 24 10
12 8 -12 10 -12 10 5 0 18 45 125 52 125 2 0 3 -58 3 -129z"/>
<path d="M1416 1085 c14 -14 32 -25 40 -25 8 0 12 -5 9 -11 -4 -6 -13 -8 -20
-5 -7 2 -16 2 -20 -2 -11 -11 -89 -8 -97 3 -4 6 -8 -12 -8 -38 0 -32 -4 -46
-11 -42 -7 5 -9 -3 -6 -22 3 -16 -1 -37 -9 -47 -9 -13 -10 -24 -3 -37 13 -26
44 -24 64 3 12 18 19 21 33 12 13 -8 75 -11 113 -5 4 1 6 9 5 19 -1 12 6 17
24 17 19 -1 28 7 37 33 8 22 9 40 3 51 -13 25 15 63 43 59 31 -5 31 -24 0 -23
-21 0 -28 -5 -28 -20 0 -11 8 -21 18 -23 10 -2 17 3 17 12 0 17 15 22 25 7 7
-13 -25 -43 -39 -38 -7 3 -17 -11 -23 -30 -10 -34 -10 -34 18 -28 16 4 29 4
29 0 0 -12 -27 -34 -34 -28 -11 12 -55 11 -65 0 -7 -9 4 -12 45 -11 51 1 54
-1 54 -23 0 -15 4 -22 11 -18 6 4 8 9 5 12 -3 3 -1 14 4 24 7 12 7 20 0 24 -6
4 -8 11 -4 16 3 5 9 7 14 4 5 -3 12 0 16 6 4 7 9 8 13 1 4 -7 13 -5 25 4 19
13 19 14 -7 14 -15 0 -28 5 -28 10 -2 14 -6 30 -9 33 -8 8 -7 57 1 57 5 0 9
-11 9 -25 0 -14 5 -25 10 -25 6 0 10 11 10 25 0 36 18 31 22 -7 2 -17 8 -33
13 -35 14 -4 7 78 -7 92 -8 7 -9 6 -4 -2 5 -10 -4 -13 -35 -13 -63 0 -36 18
36 24 33 3 74 8 90 11 82 14 94 15 100 5 5 -8 12 -7 23 2 12 10 14 10 8 1 -4
-8 -1 -13 8 -13 9 0 16 -4 16 -8 0 -5 6 -9 14 -9 11 0 12 4 3 18 -27 44 -121
50 -279 19 -128 -25 -178 -25 -248 0 -71 25 -74 25 -44 -5z m140 -33 c-13 -22
-13 -61 0 -66 13 -5 13 -10 -1 -36 -13 -25 -19 -29 -34 -20 -16 8 -21 5 -30
-21 -8 -24 -16 -30 -33 -28 -13 2 -29 0 -36 -5 -16 -9 -37 7 -29 21 4 6 23 10
43 11 34 1 53 14 54 35 0 5 -4 5 -10 2 -18 -11 -50 -14 -55 -4 -4 5 3 9 14 9
12 0 21 4 21 9 0 6 -12 9 -27 7 -21 -1 -27 -7 -26 -21 2 -18 1 -17 -8 2 -7 12
-21 23 -33 25 -13 2 -22 12 -24 26 -4 29 24 40 46 17 16 -16 16 -17 -5 -10
-18 5 -23 2 -23 -10 0 -11 5 -15 15 -12 8 4 17 1 21 -5 4 -7 10 -5 16 6 5 9 6
21 3 26 -3 6 1 13 10 16 17 7 39 -9 41 -29 0 -7 2 -19 2 -28 2 -16 32 -23 32
-7 0 4 -3 8 -7 8 -5 0 -8 18 -8 40 0 22 4 39 10 37 6 -2 10 -10 10 -17 0 -25
25 -22 35 4 5 14 12 26 15 26 4 0 4 -4 1 -8z m111 -102 c2 -28 -31 -45 -48
-24 -11 13 -9 14 15 10 23 -4 26 -2 21 15 -4 10 -3 19 2 19 5 0 9 -9 10 -20z
m-290 -28 c1 -18 -2 -30 -6 -27 -5 2 -19 -7 -31 -20 -27 -28 -40 -32 -40 -10
0 8 14 24 30 37 36 26 38 38 8 31 -23 -4 -23 -4 -3 11 27 22 40 15 42 -22z"/>
<path d="M1261 1066 c-8 -9 -17 -13 -22 -10 -5 3 -9 -2 -9 -10 0 -18 -31 -21
-47 -5 -7 7 -13 7 -17 0 -4 -5 -13 -8 -21 -5 -10 4 -15 -5 -17 -38 l-4 -43
-12 30 c-10 21 -10 36 -3 53 10 21 9 22 -10 11 -15 -8 -19 -8 -15 0 4 6 2 11
-3 11 -16 0 -13 -18 6 -51 17 -29 10 -56 -7 -29 -8 13 -10 12 -10 -2 0 -10 -5
-15 -13 -12 -8 3 -11 18 -9 43 3 29 0 40 -13 45 -15 5 -16 4 -5 -9 7 -8 10
-29 8 -45 -3 -17 -1 -33 4 -37 13 -7 141 -12 153 -4 16 9 35 10 35 1 0 -4 13
-10 30 -12 24 -4 27 -2 18 9 -6 8 -17 12 -23 9 -7 -2 -18 1 -24 7 -18 18 -13
48 9 54 11 3 18 9 15 13 -3 4 2 13 10 20 17 14 18 12 15 -49 -1 -32 2 -42 12
-39 16 6 12 77 -6 96 -10 11 -15 10 -25 -2z m-62 -55 c7 -13 6 -24 -3 -37 -12
-15 -16 -16 -30 -5 -16 14 -21 42 -9 54 12 13 32 7 42 -12z"/>
<path d="M1839 1066 c-2 -3 -3 -25 -1 -50 3 -34 10 -49 27 -60 21 -14 24 -14
29 0 3 8 2 13 -3 10 -5 -3 -13 0 -19 7 -13 16 -23 79 -11 71 5 -3 7 -10 4 -15
-3 -5 1 -6 10 -3 8 4 22 1 30 -6 9 -8 15 -8 15 -2 0 6 -10 14 -22 18 -13 3
-30 13 -39 20 -9 8 -18 12 -20 10z"/>
<path d="M1791 1044 c-36 -19 -38 -57 -4 -79 28 -18 28 -18 11 2 -23 26 -23
39 3 57 28 20 20 35 -10 20z"/>
<path d="M1695 883 c-37 -50 -38 -58 -2 -24 20 19 34 38 31 43 -7 11 -6 11
-29 -19z"/>
</g>
</svg>
